<?xml version="1.0" encoding="UTF-8" standalone="no"?> <!-- Created with Vectornator for iOS (http://vectornator.io/) --><!DOCTYPE svg PUBLIC "-//W3C//DTD SVG 1.1//EN" "http://www.w3.org/Graphics/SVG/1.1/DTD/svg11.dtd">
<svg style="fill-rule:evenodd;clip-rule:evenodd;stroke-linecap:round;stroke-linejoin:round;" xmlns:vectornator="http://vectornator.io" xmlns:xlink="http://www.w3.org/1999/xlink" xmlns="http://www.w3.org/2000/svg" xml:space="preserve" version="1.1" viewBox="0 0 100 125">
<metadata>
<vectornator:setting key="DynamicGuides" value="1"/>
<vectornator:setting key="Units" value="Points"/>
<vectornator:setting key="GuidesVisible" value="1"/>
<vectornator:setting key="RulersVisible" value="1"/>
<vectornator:setting key="SnapToGuides" value="1"/>
<vectornator:setting key="GridSpacing" value="36"/>
</metadata>
<defs/>
<g id="Untitled" vectornator:layerName="Untitled">
<g opacity="1">
<path d="M68.8973+22.9332L11.5153+22.9332L7.78901+22.9332L7.78901+97.9366L7.60395+97.9366L7.60395+101.07L7.78901+101.07L7.78901+107.336L15.2897+107.336L57.8246+107.336L92.3961+107.336L92.3961+22.9332L68.8973+22.9332ZM88.5387+26.0665L88.5387+97.9366L68.8973+97.9366L68.8973+76.7868L68.8973+62.6869L68.8973+26.0665L88.5387+26.0665ZM65.0419+73.6551L62.1503+73.6551L62.1503+65.8218L65.0419+65.8218L65.0419+73.6551ZM11.6444+26.0665L13.2329+26.0665L36.6487+26.0665L36.6487+29.3878C33.0285+29.8312+29.8246+31.719+28.2188+34.4575C27.9798+34.8679+28.0164+35.3505+28.3133+35.7327C28.6121+36.115+29.1326+36.3484+29.6897+36.3484L46.8656+36.3484C47.4227+36.3484+47.9431+36.1166+48.2419+35.7327C48.5388+35.3505+48.5754+34.8664+48.3364+34.4575C46.7306+31.719+43.5268+29.8312+39.9065+29.3878L39.9065+26.0665L65.0419+26.0665L65.0419+62.6885L58.2949+62.6885L58.2949+76.7884L65.0419+76.7884L65.0419+97.9381L11.6444+97.9381C11.6444+97.9381+11.6444+26.0665+11.6444+26.0665ZM38.2776+31.9336C40.321+31.9336+42.2583+32.5916+43.7022+33.7055L32.8511+33.7055C34.2969+32.5916+36.2362+31.9336+38.2776+31.9336ZM58.7807+104.205L13.31+104.205L11.6444+104.205L11.6444+101.071L88.5387+101.071L88.5387+104.205L58.7807+104.205Z" opacity="1" fill="#e76e51"/>
<path d="M27.8256+44.7363L31.0796+44.7363L32.7085+38.2065L29.4526+38.2065L27.8256+44.7363Z" opacity="1" fill="#e76e51"/>
<path d="M36.6506+38.2065L39.9065+38.2065L39.9065+38.2065L39.9065+44.7363L39.9065+44.7363L36.6506+44.7363L36.6506+44.7363L36.6506+38.2065L36.6506+38.2065Z" opacity="1" fill="#e76e51"/>
<path d="M43.8487+38.2065L45.4776+44.7363L48.7316+44.7363L47.1046+38.2065L43.8487+38.2065Z" opacity="1" fill="#e76e51"/>
</g>
</g>
</svg>
