<?xml version="1.0" encoding="UTF-8" standalone="no"?> <!-- Created with Vectornator for iOS (http://vectornator.io/) --><!DOCTYPE svg PUBLIC "-//W3C//DTD SVG 1.1//EN" "http://www.w3.org/Graphics/SVG/1.1/DTD/svg11.dtd">
<svg style="fill-rule:evenodd;clip-rule:evenodd;stroke-linecap:round;stroke-linejoin:round;" xmlns:vectornator="http://vectornator.io" xmlns:xlink="http://www.w3.org/1999/xlink" xmlns="http://www.w3.org/2000/svg" xml:space="preserve" version="1.1" viewBox="0 0 333.33 416.663">
<metadata>
<vectornator:setting key="DynamicGuides" value="1"/>
<vectornator:setting key="Units" value="Points"/>
<vectornator:setting key="GuidesVisible" value="1"/>
<vectornator:setting key="RulersVisible" value="1"/>
<vectornator:setting key="SnapToGuides" value="1"/>
<vectornator:setting key="GridSpacing" value="36"/>
</metadata>
<defs/>
<g id="Untitled" vectornator:layerName="Untitled">
<path d="M249.082+255.654L249.082+416.663L187.233+416.663L187.233+310.471L138.656+310.471L138.656+416.663L76.8073+416.663L76.8073+255.654L162.945+182.628L249.082+255.654ZM-7.43203+0.0158578L281.517+0.0158578L294.484+23.7332C290.536+25.4628+286.806+28.1692+283.523+31.8365L280.513+26.3116L252.964+76.9649L271.199+76.9649L271.199+94.821L-7.43203+94.821L-7.43203+76.9649L11.9919+76.9649L-7.43203+41.2527L-7.43203+28.8899L14.1186+68.5093C23.3016+51.6301+32.4846+34.7351+41.6676+17.8561L-7.43203+17.8561L-7.43203+1.09673e-05L-7.43203+0.0158578ZM333.277+71.0075L333.277+193.63C333.277+211.406+327.279+223.353+319.197+229.486L315.337+267.473C314.726+273.414+312.348+277.305+309.415+279.131C310.712+282.206+312.97+283.663+315.369+284.608C346.703+296.971+333.517+365.737+302.838+353.678C289.914+348.586+282.16+328.888+285.628+309.911C287.057+302.064+295.182+305.251+293.753+313.114C291.485+325.541+296.556+338.433+305.019+341.764C325.01+349.627+333.757+304.898+313.188+296.539C305.074+293.352+301.202+285.361+300.21+278.474C297.723+276.441+295.782+272.773+295.236+267.489L291.376+229.502C283.305+223.369+277.296+211.406+277.296+193.646L277.296+71.0235C277.296+16.7511+333.255+16.7511+333.255+71.0235L333.277+71.0075ZM324.247+191.292C323.494+177.792+316.122+165.397+305.292+165.397C295.313+165.397+287.122+176.703+286.348+191.052L286.348+71.8883C287.133+86.2533+295.313+97.5594+305.292+97.5594C316.122+97.5594+323.494+85.1643+324.247+71.6481L324.247+191.276L324.247+191.292ZM309.316+199.251C312.872+194.062+310.429+184.934+305.292+184.934C302.14+184.934+299.588+188.682+299.588+193.31C299.588+200.821+305.761+204.424+309.305+199.251L309.316+199.251ZM313.744+205.801C321.237+194.895+316.078+175.71+305.303+175.71C298.683+175.71+293.317+183.589+293.317+193.31C293.317+209.068+306.284+216.659+313.744+205.801ZM309.316+63.6889C312.872+68.8776+310.429+78.0058+305.292+78.0058C302.14+78.0058+299.588+74.2584+299.588+69.6303C299.588+62.1195+305.761+58.5163+309.305+63.6729L309.316+63.6889ZM313.744+57.139C321.237+68.0448+316.078+87.2301+305.303+87.2301C298.683+87.2301+293.317+79.351+293.317+69.6303C293.317+53.8721+306.284+46.2812+313.744+57.139ZM102.404+26.2957L129.953+76.9489L74.8551+76.9489L102.404+26.2957ZM73.5027+68.5093L45.9537+17.8561L101.052+17.8561L73.5027+68.5093ZM43.8161+26.2957C34.6331+43.1744+25.4501+60.0697+16.2671+76.9489C34.6331+76.9489+52.9991+76.9489+71.376+76.9489C62.1821+60.0697+52.9991+43.1744+43.827+26.2957L43.8161+26.2957ZM132.091+68.5093C141.274+51.6301+150.457+34.7353+159.64+17.8561C141.274+17.8561+122.897+17.8561+104.542+17.8561C113.725+34.7513+122.908+51.6301+132.091+68.5093ZM250.837+68.5093L278.386+17.8561L223.278+17.8561L250.827+68.5093L250.837+68.5093ZM191.464+68.5093C200.647+51.6301+209.83+34.7353+219.013+17.8561C200.647+17.8561+182.27+17.8561+163.915+17.8561C173.098+34.7513+182.281+51.6301+191.464+68.5093ZM221.151+26.2957C230.334+43.1744+239.517+60.0697+248.7+76.9489C230.334+76.9489+211.968+76.9489+193.591+76.9489C202.774+60.0697+211.968+43.1744+221.14+26.2957L221.151+26.2957ZM161.778+26.2957C170.961+43.1744+180.144+60.0697+189.327+76.9489C170.961+76.9489+152.595+76.9489+134.229+76.9489C143.412+60.0697+152.595+43.1744+161.778+26.2957ZM162.955+164.276L57.7324+253.476L57.7324+218.901L162.955+129.716L220.595+178.576L220.595+143.265L240.978+143.265L240.978+195.856L268.178+218.901L268.178+253.476L162.955+164.276Z" fill-rule="evenodd" fill="#a50000" opacity="1"/>
</g>
</svg>
