<?xml version="1.0" encoding="UTF-8" standalone="no"?> <!-- Created with Vectornator for iOS (http://vectornator.io/) --><!DOCTYPE svg PUBLIC "-//W3C//DTD SVG 1.1//EN" "http://www.w3.org/Graphics/SVG/1.1/DTD/svg11.dtd">
<svg style="fill-rule:evenodd;clip-rule:evenodd;stroke-linecap:round;stroke-linejoin:round;" xmlns:vectornator="http://vectornator.io" xmlns:xlink="http://www.w3.org/1999/xlink" xmlns="http://www.w3.org/2000/svg" xml:space="preserve" version="1.1" viewBox="0 0 128 160">
<metadata>
<vectornator:setting key="DynamicGuides" value="1"/>
<vectornator:setting key="Units" value="Points"/>
<vectornator:setting key="GuidesVisible" value="1"/>
<vectornator:setting key="RulersVisible" value="1"/>
<vectornator:setting key="SnapToGuides" value="1"/>
<vectornator:setting key="GridSpacing" value="36"/>
</metadata>
<defs/>
<g id="Untitled" vectornator:layerName="Untitled">
<path d="M63.998+30.985C51.8477+30.985+41.998+40.8347+41.998+52.985C41.998+65.1353+51.8477+74.985+63.998+74.985C76.1483+74.985+85.998+65.1353+85.998+52.985C85.998+40.8347+76.1483+30.985+63.998+30.985ZM79.998+54.985L81.878+54.985C81.5016+58.3594+80.1733+61.5571+78.048+64.205L76.728+62.885C75.9464+62.104+74.6798+62.1042+73.8985+62.8855C73.1172+63.6668+73.117+64.9334+73.898+65.715L75.218+67.035C72.5701+69.1603+69.3724+70.4886+65.998+70.865L65.998+68.985C65.998+67.8804+65.1026+66.985+63.998+66.985C62.8934+66.985+61.998+67.8804+61.998+68.985L61.998+70.865C58.6236+70.4886+55.4259+69.1603+52.778+67.035L54.098+65.715C54.879+64.9334+54.8788+63.6668+54.0975+62.8855C53.3162+62.1042+52.0496+62.104+51.268+62.885L49.948+64.205C47.8227+61.5571+46.4944+58.3594+46.118+54.985L47.998+54.985C49.1026+54.985+49.998+54.0896+49.998+52.985C49.998+51.8804+49.1026+50.985+47.998+50.985L46.118+50.985C46.4944+47.6106+47.8227+44.4129+49.948+41.765L51.268+43.085C51.6431+43.4606+52.1522+43.6716+52.683+43.6716C53.2138+43.6716+53.7229+43.4606+54.098+43.085C54.4736+42.7099+54.6846+42.2008+54.6846+41.67C54.6846+41.1392+54.4736+40.6301+54.098+40.255L52.778+38.935C55.4259+36.8097+58.6236+35.4814+61.998+35.105L61.998+36.985C61.998+38.0896+62.8934+38.985+63.998+38.985C65.1026+38.985+65.998+38.0896+65.998+36.985L65.998+35.105C69.3724+35.4814+72.5701+36.8097+75.218+38.935L73.898+40.255C73.5224+40.6301+73.3114+41.1392+73.3114+41.67C73.3114+42.2008+73.5224+42.7099+73.898+43.085C74.6921+43.8355+75.9339+43.8355+76.728+43.085L78.048+41.765C80.1733+44.4129+81.5016+47.6106+81.878+50.985L79.998+50.985C78.8934+50.985+77.998+51.8804+77.998+52.985C77.998+54.0896+78.8934+54.985+79.998+54.985Z" opacity="1" fill="#f08f00"/>
<path d="M64+27C62.8954+27+62+27.8954+62+29L62+35L56+35C54.8954+35+54+35.8954+54+37C54+38.1046+54.8954+39+56+39L64+39C65.1046+39+66+38.1046+66+37L66+29C66+27.8954+65.1046+27+64+27Z" opacity="1" fill="#f08f00"/>
<path d="M118.768+61.135C118.104+60.8362+117.331+60.9214+116.748+61.3575C116.166+61.7937+115.866+62.5118+115.966+63.2327C116.065+63.9536+116.549+64.5634+117.228+64.825C122.068+66.8414+124.813+71.9942+123.784+77.136C122.756+82.2779+118.242+85.9792+112.998+85.9792C107.754+85.9792+103.24+82.2779+102.212+77.136C101.183+71.9942+103.928+66.8414+108.768+64.825C109.755+64.3803+110.21+63.2305+109.793+62.2311C109.375+61.2316+108.239+60.7458+107.228+61.135C100.628+63.8854+96.8869+70.9118+98.2894+77.923C99.6918+84.9342+105.848+89.9808+112.998+89.9808C120.148+89.9808+126.304+84.9342+127.707+77.923C129.109+70.9118+125.368+63.8854+118.768+61.135Z" opacity="1" fill="#f08f00"/>
<path d="M9.228+88.835C16.8771+92.0217+25.6613+88.4041+28.848+80.755C32.0347+73.1059+28.4171+64.3217+20.768+61.135C19.7574+60.7458+18.6206+61.2316+18.2035+62.2311C17.7864+63.2305+18.2405+64.3804+19.228+64.825C24.0684+66.8414+26.8126+71.9942+25.7845+77.136C24.7563+82.2779+20.2417+85.9792+14.998+85.9792C9.75436+85.9792+5.23971+82.2779+4.21153+77.136C3.18336+71.9942+5.92756+66.8414+10.768+64.825C11.4471+64.5634+11.9306+63.9536+12.0303+63.2327C12.13+62.5118+11.8303+61.7937+11.2477+61.3576C10.6651+60.9214+9.89159+60.8362+9.228+61.135C3.63977+63.4647+9.14192e-07+68.9256+8.23994e-17+74.98C-1.78814e-06+81.0344+3.63977+86.4953+9.228+88.825L9.228+88.835Z" opacity="1" fill="#f08f00"/>
<path d="M97.438+59.655C99.4041+59.655+100.998+58.0611+100.998+56.095L100.998+49.875C100.998+47.9089+99.4041+46.315+97.438+46.315L95.638+46.315C94.8109+42.398+93.2647+38.6684+91.078+35.315L92.358+34.035C93.7254+32.6488+93.7254+30.4212+92.358+29.035L87.998+24.625C86.6118+23.2576+84.3842+23.2576+82.998+24.625L81.658+25.905C78.3046+23.7183+74.575+22.1722+70.658+21.345L70.658+19.545C70.658+17.5828+69.0702+15.9905+67.108+15.985L60.888+15.985C58.9219+15.985+57.328+17.5789+57.328+19.545L57.328+21.345C53.411+22.1722+49.6814+23.7183+46.328+25.905L45.058+24.625C43.6718+23.2576+41.4442+23.2576+40.058+24.625L35.638+28.985C34.2706+30.3712+34.2706+32.5988+35.638+33.985L36.918+35.265C34.7313+38.6184+33.1851+42.348+32.358+46.265L30.558+46.265C29.6051+46.2649+28.6919+46.6468+28.0229+47.3253C27.3538+48.0038+26.9846+48.9222+26.998+49.875L26.998+56.095C26.998+58.0611+28.5919+59.655+30.558+59.655L32.358+59.655C33.1851+63.572+34.7313+67.3016+36.918+70.655L35.638+71.935C34.2706+73.3212+34.2706+75.5488+35.638+76.935L40.038+81.335C41.4242+82.7024+43.6518+82.7024+45.038+81.335L46.318+80.055C49.6716+82.2413+53.4012+83.7874+57.318+84.615L57.318+85.345C55.8913+84.821+54.3247+84.821+52.898+85.345C51.1384+86.0334+49.7319+87.4039+48.998+89.145L44.578+96.685C41.0536+93.865+37.0495+91.7038+32.758+90.305C28.758+88.945+16.528+92.535+14.418+96.385C13.5998+97.7249+13.953+99.469+15.228+100.385C33.768+115.285+33.068+141.665+33.058+141.945C33.039+142.487+33.2413+143.014+33.6185+143.405C33.9956+143.795+34.5152+144.015+35.058+144.015L54.608+144.015C55.5242+144.015+56.3235+143.393+56.548+142.505C56.618+142.245+60.748+125.055+54.378+109.945L61.378+95.185C62.0742+93.5363+62.1663+91.6949+61.638+89.985L66.358+89.985C65.8304+91.7119+65.9224+93.5687+66.618+95.235L73.618+109.915C67.258+125.025+71.388+142.215+71.448+142.475C71.6725+143.363+72.4718+143.985+73.388+143.985L92.948+143.985C93.4908+143.985+94.0104+143.765+94.3875+143.375C94.7647+142.984+94.967+142.457+94.948+141.915C94.948+141.655+94.188+115.295+112.778+100.355C114.053+99.439+114.406+97.6949+113.588+96.355C111.478+92.505+99.278+88.915+95.248+90.275C90.9508+91.6818+86.9431+93.8533+83.418+96.685L78.998+89.145C78.2508+87.4209+76.8418+86.0695+75.088+85.395C73.6614+84.8701+72.0946+84.8701+70.668+85.395L70.668+84.665C74.5848+83.8374+78.3144+82.2913+81.668+80.105L82.948+81.385C84.3342+82.7524+86.5618+82.7524+87.948+81.385L92.348+76.985C93.7154+75.5988+93.7154+73.3712+92.348+71.985L91.068+70.705C93.2547+67.3516+94.8009+63.622+95.628+59.705L97.438+59.655ZM57.758+93.515L47.858+114.295L40.858+110.865C38.548+109.725+36.728+113.405+39.138+114.505C41.548+115.605+43.848+116.815+46.198+117.965C47.558+118.635+49.618+119.805+50.548+117.845L51.998+114.795C55.338+125.215+53.778+135.985+52.998+139.985L36.998+139.985C36.828+133.205+34.928+111.655+18.368+97.805C20.708+95.985+28.998+93.465+31.478+94.095C38.558+95.915+44.378+101.575+44.378+101.575C45.2902+101.933+46.3274+101.577+46.828+100.735L52.508+91.065C53.298+89.705+54.608+88.425+56.278+89.245C57.7718+90.0962+58.4046+91.9219+57.758+93.515ZM71.708+89.245C72.3306+88.9308+73.0571+88.8945+73.708+89.145C74.4715+89.4522+75.0753+90.0596+75.378+90.825C75.4127+90.9075+75.4528+90.9877+75.498+91.065L81.178+100.735C81.9596+101.567+83.1778+101.823+84.228+101.375C87.518+98.195+88.948+96.175+96.528+94.095C98.958+93.425+107.298+95.995+109.588+97.795C92.998+111.655+91.118+133.205+90.998+139.985L74.998+139.985C73.8572+133.873+73.6884+127.619+74.498+121.455C74.8238+119.229+75.3254+117.032+75.998+114.885L77.408+117.885C77.6388+118.367+78.0532+118.737+78.5587+118.912C79.0641+119.087+79.6185+119.052+80.098+118.815L88.598+114.625L88.828+114.535C89.3177+114.317+89.6993+113.911+89.8873+113.409C90.0753+112.908+90.0539+112.351+89.828+111.865C89.6104+111.365+89.1981+110.975+88.6864+110.787C88.1748+110.598+87.6083+110.626+87.118+110.865L80.118+114.295L70.278+93.605C69.5791+91.9994+70.1939+90.1248+71.708+89.245ZM91.998+57.345C91.301+61.8112+89.5455+66.0457+86.878+69.695C86.2928+70.492+86.3778+71.5969+87.078+72.295L89.218+74.435L85.448+78.205L83.308+76.065C82.6099+75.3648+81.505+75.2798+80.708+75.865C77.0587+78.5325+72.8242+80.288+68.358+80.985C67.3759+81.139+66.656+81.991+66.668+82.985L66.668+85.985L61.328+85.985L61.328+82.985C61.34+81.991+60.6201+81.139+59.638+80.985C55.1718+80.288+50.9373+78.5325+47.288+75.865C46.491+75.2798+45.3861+75.3648+44.688+76.065L42.548+78.205L38.778+74.435L40.918+72.295C41.6182+71.5969+41.7032+70.492+41.118+69.695C38.4505+66.0458+36.695+61.8112+35.998+57.345C35.844+56.3629+34.992+55.643+33.998+55.655L30.998+55.655L30.998+50.315L33.998+50.315C34.992+50.327+35.844+49.6071+35.998+48.625C36.695+44.1588+38.4505+39.9243+41.118+36.275C41.7032+35.478+41.6182+34.3731+40.918+33.675L38.778+31.535L42.548+27.765L44.688+29.905C45.3861+30.6052+46.491+30.6902+47.288+30.105C50.9372+27.4375+55.1718+25.682+59.638+24.985C60.6201+24.831+61.34+23.979+61.328+22.985L61.328+19.985L66.658+19.985L66.658+22.985C66.646+23.979+67.3659+24.831+68.348+24.985C72.8142+25.682+77.0487+27.4375+80.698+30.105C81.495+30.6902+82.5999+30.6052+83.298+29.905L85.438+27.765L89.208+31.535L87.068+33.675C86.3678+34.3731+86.2828+35.478+86.868+36.275C89.539+39.9233+91.2981+44.1579+91.998+48.625C92.152+49.6071+93.004+50.327+93.998+50.315L96.998+50.315L96.998+55.645L93.998+55.645C93.0007+55.6337+92.1475+56.3589+91.998+57.345Z" opacity="1" fill="#f08f00"/>
</g>
</svg>
