<?xml version="1.0" encoding="UTF-8" standalone="no"?> <!-- Created with Vectornator for iOS (http://vectornator.io/) --><!DOCTYPE svg PUBLIC "-//W3C//DTD SVG 1.1//EN" "http://www.w3.org/Graphics/SVG/1.1/DTD/svg11.dtd">
<svg style="fill-rule:evenodd;clip-rule:evenodd;stroke-linecap:round;stroke-linejoin:round;" xmlns:vectornator="http://vectornator.io" xmlns:xlink="http://www.w3.org/1999/xlink" xmlns="http://www.w3.org/2000/svg" xml:space="preserve" version="1.1" viewBox="0 0 128 160">
<metadata>
<vectornator:setting key="DynamicGuides" value="1"/>
<vectornator:setting key="Units" value="Points"/>
<vectornator:setting key="GuidesVisible" value="1"/>
<vectornator:setting key="RulersVisible" value="1"/>
<vectornator:setting key="SnapToGuides" value="1"/>
<vectornator:setting key="GridSpacing" value="36"/>
</metadata>
<defs/>
<g id="Untitled" vectornator:layerName="Untitled">
<path d="M63.998+18.3953C51.8477+18.3953+41.998+30.4745+41.998+45.3751C41.998+60.2756+51.8477+72.3548+63.998+72.3548C76.1483+72.3548+85.998+60.2756+85.998+45.3751C85.998+30.4745+76.1483+18.3953+63.998+18.3953ZM79.998+47.8278L81.878+47.8278C81.5016+51.966+80.1733+55.8875+78.048+59.1347L76.728+57.516C75.9464+56.5582+74.6798+56.5584+73.8985+57.5166C73.1172+58.4747+73.117+60.028+73.898+60.9865L75.218+62.6053C72.5701+65.2117+69.3724+66.8407+65.998+67.3023L65.998+64.9967C65.998+63.6421+65.1026+62.544+63.998+62.544C62.8934+62.544+61.998+63.6421+61.998+64.9967L61.998+67.3023C58.6236+66.8407+55.4259+65.2117+52.778+62.6053L54.098+60.9865C54.879+60.028+54.8788+58.4747+54.0975+57.5166C53.3162+56.5584+52.0496+56.5582+51.268+57.516L49.948+59.1347C47.8227+55.8875+46.4944+51.966+46.118+47.8278L47.998+47.8278C49.1026+47.8278+49.998+46.7297+49.998+45.3751C49.998+44.0204+49.1026+42.9224+47.998+42.9224L46.118+42.9224C46.4944+38.7842+47.8227+34.8626+49.948+31.6154L51.268+33.2342C51.6431+33.6948+52.1522+33.9535+52.683+33.9535C53.2138+33.9535+53.7229+33.6948+54.098+33.2342C54.4736+32.7742+54.6846+32.1498+54.6846+31.4989C54.6846+30.8479+54.4736+30.2236+54.098+29.7636L52.778+28.1448C55.4259+25.5384+58.6236+23.9095+61.998+23.4479L61.998+25.7534C61.998+27.108+62.8934+28.2061+63.998+28.2061C65.1026+28.2061+65.998+27.108+65.998+25.7534L65.998+23.4479C69.3724+23.9095+72.5701+25.5384+75.218+28.1448L73.898+29.7636C73.5224+30.2236+73.3114+30.8479+73.3114+31.4989C73.3114+32.1498+73.5224+32.7742+73.898+33.2342C74.6921+34.1545+75.9339+34.1545+76.728+33.2342L78.048+31.6154C80.1733+34.8626+81.5016+38.7842+81.878+42.9224L79.998+42.9224C78.8934+42.9224+77.998+44.0204+77.998+45.3751C77.998+46.7297+78.8934+47.8278+79.998+47.8278Z" fill-rule="evenodd" fill="#a50000" opacity="1"/>
<path d="M64+13.5083C62.8954+13.5083+62+14.6064+62+15.961L62+23.3191L56+23.3191C54.8954+23.3191+54+24.4172+54+25.7718C54+27.1264+54.8954+28.2245+56+28.2245L64+28.2245C65.1046+28.2245+66+27.1264+66+25.7718L66+15.961C66+14.6064+65.1046+13.5083+64+13.5083Z" fill-rule="evenodd" fill="#a50000" opacity="1"/>
<path d="M118.768+55.3698C118.104+55.0034+117.331+55.1079+116.748+55.6427C116.166+56.1776+115.866+57.0583+115.966+57.9424C116.065+58.8264+116.549+59.5743+117.228+59.8951C122.068+62.3679+124.813+68.6871+123.784+74.9927C122.756+81.2985+118.242+85.8376+112.998+85.8376C107.754+85.8376+103.24+81.2985+102.212+74.9927C101.183+68.6871+103.928+62.3679+108.768+59.8951C109.755+59.3497+110.21+57.9397+109.793+56.714C109.375+55.4883+108.239+54.8925+107.228+55.3698C100.628+58.7428+96.8869+67.3596+98.2894+75.9579C99.6918+84.5561+105.848+90.745+112.998+90.745C120.148+90.745+126.304+84.5561+127.707+75.9579C129.109+67.3596+125.368+58.7428+118.768+55.3698Z" fill-rule="evenodd" fill="#a50000" opacity="1"/>
<path d="M9.228+89.3398C16.8771+93.2478+25.6613+88.8114+28.848+79.4309C32.0347+70.0504+28.4171+59.2779+20.768+55.3698C19.7574+54.8925+18.6206+55.4883+18.2035+56.714C17.7864+57.9397+18.2405+59.3498+19.228+59.8951C24.0684+62.3679+26.8126+68.6871+25.7845+74.9927C24.7563+81.2985+20.2417+85.8376+14.998+85.8376C9.75436+85.8376+5.23971+81.2985+4.21153+74.9927C3.18336+68.6871+5.92756+62.3679+10.768+59.8951C11.4471+59.5743+11.9306+58.8264+12.0303+57.9424C12.13+57.0583+11.8303+56.1776+11.2477+55.6428C10.6651+55.1079+9.89159+55.0034+9.228+55.3698C3.63977+58.2269+9.14192e-07+64.9239+8.23994e-17+72.3487C-1.78814e-06+79.7735+3.63977+86.4705+9.228+89.3276L9.228+89.3398Z" fill-rule="evenodd" fill="#a50000" opacity="1"/>
<path d="M97.438+53.5548C99.4041+53.5548+100.998+51.6002+100.998+49.189L100.998+41.5611C100.998+39.15+99.4041+37.1953+97.438+37.1953L95.638+37.1953C94.8109+32.3917+93.2647+27.8179+91.078+23.7054L92.358+22.1357C93.7254+20.4357+93.7254+17.7039+92.358+16.0039L87.998+10.5957C86.6118+8.91877+84.3842+8.91877+82.998+10.5957L81.658+12.1654C78.3046+9.48375+74.575+7.58769+70.658+6.57325L70.658+4.36582C70.658+1.95946+69.0702+0.00674334+67.108-2.57365e-06L60.888-2.57365e-06C58.9219-2.57365e-06+57.328+1.95468+57.328+4.36582L57.328+6.57325C53.411+7.58769+49.6814+9.48375+46.328+12.1654L45.058+10.5957C43.6718+8.91877+41.4442+8.91877+40.058+10.5957L35.638+15.9426C34.2706+17.6426+34.2706+20.3744+35.638+22.0744L36.918+23.6441C34.7313+27.7565+33.1851+32.3303+32.358+37.134L30.558+37.134C29.6051+37.1338+28.6919+37.6022+28.0229+38.4343C27.3538+39.2664+26.9846+40.3926+26.998+41.5611L26.998+49.189C26.998+51.6002+28.5919+53.5548+30.558+53.5548L32.358+53.5548C33.1851+58.3585+34.7313+62.9323+36.918+67.0447L35.638+68.6145C34.2706+70.3144+34.2706+73.0462+35.638+74.7462L40.038+80.1422C41.4242+81.8191+43.6518+81.8191+45.038+80.1422L46.318+78.5724C49.6716+81.2536+53.4012+83.1497+57.318+84.1646L57.318+85.0599C55.8913+84.4172+54.3247+84.4172+52.898+85.0599C51.1384+85.9041+49.7319+87.5848+48.998+89.72L44.578+98.9667C41.0536+95.5084+37.0495+92.858+32.758+91.1426C28.758+89.4747+16.528+93.8773+14.418+98.5988C13.5998+100.242+13.953+102.381+15.228+103.504C33.768+121.777+33.068+154.128+33.058+154.471C33.039+155.136+33.2413+155.782+33.6185+156.262C33.9956+156.74+34.5152+157.01+35.058+157.01L54.608+157.01C55.5242+157.01+56.3235+156.247+56.548+155.158C56.618+154.839+60.748+133.758+54.378+115.228L61.378+97.1272C62.0742+95.1053+62.1663+92.8471+61.638+90.7501L66.358+90.7501C65.8304+92.8679+65.9224+95.145+66.618+97.1885L73.618+115.191C67.258+133.722+71.388+154.803+71.448+155.121C71.6725+156.21+72.4718+156.973+73.388+156.973L92.948+156.973C93.4908+156.973+94.0104+156.703+94.3875+156.225C94.7647+155.746+94.967+155.099+94.948+154.435C94.948+154.116+94.188+121.789+112.778+103.467C114.053+102.344+114.406+100.205+113.588+98.562C111.478+93.8405+99.278+89.4379+95.248+91.1058C90.9508+92.831+86.9431+95.494+83.418+98.9667L78.998+89.72C78.2508+87.6056+76.8418+85.9483+75.088+85.1212C73.6614+84.4775+72.0946+84.4775+70.668+85.1212L70.668+84.2259C74.5848+83.211+78.3144+81.3149+81.668+78.6338L82.948+80.2035C84.3342+81.8804+86.5618+81.8804+87.948+80.2035L92.348+74.8075C93.7154+73.1076+93.7154+70.3757+92.348+68.6758L91.068+67.106C93.2547+62.9936+94.8009+58.4198+95.628+53.6162L97.438+53.5548ZM57.758+95.0792L47.858+120.563L40.858+116.356C38.548+114.958+36.728+119.471+39.138+120.82C41.548+122.169+43.848+123.653+46.198+125.063C47.558+125.885+49.618+127.32+50.548+124.916L51.998+121.176C55.338+133.955+53.778+147.162+52.998+152.068L36.998+152.068C36.828+143.753+34.928+117.325+18.368+100.34C20.708+98.1082+28.998+95.0178+31.478+95.7904C38.558+98.0224+44.378+104.964+44.378+104.964C45.2902+105.403+46.3274+104.966+46.828+103.933L52.508+92.0746C53.298+90.4068+54.608+88.837+56.278+89.8426C57.7718+90.8865+58.4046+93.1254+57.758+95.0792ZM71.708+89.8426C72.3306+89.4573+73.0571+89.4128+73.708+89.72C74.4715+90.0967+75.0753+90.8416+75.378+91.7803C75.4127+91.8814+75.4528+91.9798+75.498+92.0746L81.178+103.933C81.9596+104.954+83.1778+105.268+84.228+104.718C87.518+100.818+88.948+98.3413+96.528+95.7904C98.958+94.9688+107.298+98.1205+109.588+100.328C92.998+117.325+91.118+143.753+90.998+152.068L74.998+152.068C73.8572+144.572+73.6884+136.903+74.498+129.343C74.8238+126.614+75.3254+123.919+75.998+121.286L77.408+124.965C77.6388+125.556+78.0532+126.01+78.5587+126.225C79.0641+126.439+79.6185+126.397+80.098+126.106L88.598+120.967L88.828+120.857C89.3177+120.59+89.6993+120.092+89.8873+119.476C90.0753+118.862+90.0539+118.179+89.828+117.583C89.6104+116.97+89.1981+116.491+88.6864+116.261C88.1748+116.029+87.6083+116.063+87.118+116.356L80.118+120.563L70.278+95.1895C69.5791+93.2205+70.1939+90.9216+71.708+89.8426ZM91.998+50.722C91.301+56.1991+89.5455+61.3921+86.878+65.8674C86.2928+66.8448+86.3778+68.1998+87.078+69.0559L89.218+71.6803L85.448+76.3037L83.308+73.6793C82.6099+72.8206+81.505+72.7164+80.708+73.434C77.0587+76.7053+72.8242+78.8582+68.358+79.713C67.3759+79.9018+66.656+80.9467+66.668+82.1657L66.668+85.8447L61.328+85.8447L61.328+82.1657C61.34+80.9467+60.6201+79.9018+59.638+79.713C55.1718+78.8582+50.9373+76.7053+47.288+73.434C46.491+72.7164+45.3861+72.8206+44.688+73.6793L42.548+76.3037L38.778+71.6803L40.918+69.0559C41.6182+68.1998+41.7032+66.8448+41.118+65.8674C38.4505+61.3922+36.695+56.1991+35.998+50.722C35.844+49.5176+34.992+48.6347+33.998+48.6494L30.998+48.6494L30.998+42.1007L33.998+42.1007C34.992+42.1154+35.844+41.2326+35.998+40.0282C36.695+34.551+38.4505+29.358+41.118+24.8827C41.7032+23.9053+41.6182+22.5503+40.918+21.6942L38.778+19.0698L42.548+14.4464L44.688+17.0708C45.3861+17.9295+46.491+18.0338+47.288+17.3161C50.9372+14.0448+55.1718+11.8919+59.638+11.0372C60.6201+10.8483+61.34+9.80346+61.328+8.58447L61.328+4.90541L66.658+4.90541L66.658+8.58447C66.646+9.80346+67.3659+10.8483+68.348+11.0372C72.8142+11.8919+77.0487+14.0448+80.698+17.3161C81.495+18.0338+82.5999+17.9295+83.298+17.0708L85.438+14.4464L89.208+19.0698L87.068+21.6942C86.3678+22.5503+86.2828+23.9053+86.868+24.8827C89.539+29.3568+91.2981+34.5499+91.998+40.0282C92.152+41.2326+93.004+42.1154+93.998+42.1007L96.998+42.1007L96.998+48.6372L93.998+48.6372C93.0007+48.6233+92.1475+49.5127+91.998+50.722Z" fill-rule="evenodd" fill="#a50000" opacity="1"/>
</g>
</svg>
