
        <svg xmlns="http://www.w3.org/2000/svg" xmlns:xlink="http://www.w3.org/1999/xlink" version="1.1" width="3165.130801952011" 
        height="1043.6266683367103" viewBox="0 0 3165.130801952011 1043.6266683367103">
			<rect fill="#ffffff" width="3165.130801952011" height="1043.6266683367103"/>
			<g transform="scale(8.256540097600556) translate(10, 10)">
				<defs id="SvgjsDefs16576"></defs><g id="SvgjsG16577" featureKey="sT9YGu-0" transform="matrix(0.9677418660174846,0,0,0.9677418660174846,-1.4516118761156642,86.69677455576597)" fill="#364f6b"><path d="M6.78 5.84 q3.1 0 5.08 1.95 t2.02 5.13 q0 3.16 -1.99 5.1 t-5.07 1.98 l-5.32 0 l0 -14.16 l5.28 0 z M6.38 18.44 q2.66 0 4.17 -1.41 t1.53 -4.11 q0 -2.6 -1.48 -4.04 t-4.22 -1.48 l-3.2 0 l0 11.04 l3.2 0 z M42.519999999999996 5.84 l0 1.56 l-7.22 0 l0 4.44 l6.74 0 l0 1.56 l-6.74 0 l0 5.04 l7.58 0 l0 1.56 l-9.26 0 l0 -14.16 l8.9 0 z M66.66 5.48 q2.58 0 3.96 1.66 l-1.38 1.2 q-0.8 -1.26 -2.58 -1.3 q-1.34 0 -2.18 0.64 t-0.84 1.74 q0 0.96 0.64 1.52 t2.4 1.1 q2.28 0.66 3.23 1.61 t0.95 2.57 q0 1.88 -1.4 3 t-3.58 1.14 q-1.46 0 -2.6 -0.52 t-1.76 -1.44 l1.44 -1.18 q0.46 0.76 1.28 1.17 t1.74 0.41 q1.26 0 2.17 -0.71 t0.91 -1.75 q0 -0.94 -0.53 -1.48 t-1.75 -0.92 l-1.62 -0.54 q-1.82 -0.62 -2.57 -1.55 t-0.75 -2.29 q0 -1.8 1.34 -2.93 t3.48 -1.15 z M92.36 5.84 l0 14.16 l-1.68 0 l0 -14.16 l1.68 0 z M119.72 5.48 q3.14 0 5 1.86 l-1.26 1.32 q-0.74 -0.78 -1.75 -1.2 t-2.11 -0.42 q-2.44 0 -4.05 1.68 t-1.65 4.2 q0.02 2.62 1.66 4.23 t4.2 1.65 q1.84 0 3.52 -0.82 l0 -4.34 l-3.26 0 l0 -1.56 l4.94 0 l0 6.96 q-2.44 1.32 -5.3 1.32 q-3.34 0 -5.43 -2.09 t-2.13 -5.35 q0.02 -3.26 2.16 -5.32 t5.46 -2.12 z M147.64 5.84 l8.2 11.76 l0.04 0 l0 -11.76 l1.68 0 l0 14.16 l-2.12 0 l-8.2 -11.76 l-0.04 0 l0 11.76 l-1.68 0 l0 -14.16 l2.12 0 z M205.26 5.58 q1.64 0 2.59 0.88 t0.95 2.26 q0 1.08 -0.74 1.95 t-2.26 1.65 l3 3.18 l1.9 -3.18 l1.9 0 l-2.72 4.36 l3.24 3.32 l-2.3 0 l-1.92 -2.04 q-0.96 1.22 -1.98 1.75 t-2.26 0.53 q-1.96 0 -3.23 -1.16 t-1.27 -2.88 q0.02 -2.62 3.14 -4.1 q-0.94 -0.94 -1.32 -1.71 t-0.38 -1.57 q0 -1.46 1.05 -2.35 t2.61 -0.89 z M203.27999999999997 8.92 q0 0.54 0.35 1.08 t1.13 1.3 q1.3 -0.66 1.83 -1.25 t0.53 -1.37 q0 -0.74 -0.51 -1.2 t-1.31 -0.46 q-0.86 0 -1.44 0.53 t-0.58 1.37 z M201.83999999999997 16.14 q0 1.08 0.82 1.87 t1.94 0.79 q0.86 0 1.62 -0.44 t1.66 -1.52 l-3.54 -3.72 q-1.38 0.76 -1.94 1.45 t-0.56 1.57 z M259.11999999999995 5.84 q2.24 0 3.46 0.91 t1.24 2.57 q0 1.22 -0.67 2.04 t-1.81 1.16 l0 0.04 q1.38 0.12 2.29 1.11 t0.91 2.37 q0 1.88 -1.42 2.91 t-4.04 1.05 l-4.28 0 l0 -14.16 l4.32 0 z M258.87999999999994 11.84 q1.54 0 2.34 -0.55 t0.8 -1.75 q0 -2.1 -2.96 -2.14 l-2.58 0 l0 4.44 l2.4 0 z M259.4 18.44 q1.52 0 2.43 -0.67 t0.91 -1.79 q0 -1.28 -0.9 -1.93 t-2.46 -0.65 l-2.9 0 l0 5.04 l2.92 0 z M286.05999999999995 5.84 l0 8.52 q0 2.16 0.92 3.28 t2.74 1.16 q1.82 -0.02 2.73 -1.15 t0.93 -3.21 l0 -8.6 l1.68 0 l0 8.82 q0 2.7 -1.4 4.19 t-3.94 1.51 q-2.5 0 -3.91 -1.51 t-1.43 -4.21 l0 -8.8 l1.68 0 z M317.23999999999995 5.84 l0 14.16 l-1.68 0 l0 -14.16 l1.68 0 z M339.47999999999996 5.84 l0 12.6 l6.48 0 l0 1.56 l-8.16 0 l0 -14.16 l1.68 0 z M369.85999999999996 5.84 q3.1 0 5.08 1.95 t2.02 5.13 q0 3.16 -1.99 5.1 t-5.07 1.98 l-5.32 0 l0 -14.16 l5.28 0 z M369.46 18.44 q2.66 0 4.17 -1.41 t1.53 -4.11 q0 -2.6 -1.48 -4.04 t-4.22 -1.48 l-3.2 0 l0 11.04 l3.2 0 z"></path></g><g id="SvgjsG16578" featureKey="nameLeftFeature-0" transform="matrix(5.022279177292525,0,0,5.022279177292525,33.97744901184845,-28.44507345146307)" fill="#364f6b"><path d="M1.6775 12.833400000000001 c0.0084766 1.6747 0.66984 3.2688 1.8621 4.4852 c0.13109 0.13363 0.12889 0.34824 -0.004746 0.47918 c-0.065898 0.064532 -0.1516 0.096718 -0.23712 0.096718 c-0.087734 0 -0.17547 -0.034044 -0.24188 -0.10162 c-1.3163 -1.343 -2.0464 -3.1044 -2.0558 -4.9594 c0.007461 -1.4733 0.47004 -2.888 1.3376 -4.095 c0.67176 -0.9348 1.5702 -1.7109 2.5976 -2.2444 c1.0349 -0.53744 2.198 -0.82454 3.3638 -0.8303 c1.6999 0 3.2872 0.53642 4.5918 1.5508 c0.59436 0.4951 0.7031 1.363 0.25662 1.9831 c-0.003379 0.0045704 -0.0069336 0.0091406 -0.010488 0.013535 c-0.4856 0.6074 -1.3977 0.72816 -1.9909 0.26388 c-0.7788 -0.63688 -1.7607 -0.97124 -2.8454 -0.97124 c-0.22918 0 -0.46022 0.017793 -0.68684 0.052676 c-0.18631 0.02795 -0.3579 -0.098418 -0.38634 -0.2832 c-0.028456 -0.18496 0.098418 -0.3579 0.2832 -0.38634 c0.26084 -0.040136 0.5266 -0.060468 0.79016 -0.060468 c1.2429 0 2.3732 0.3872 3.2688 1.1198 c0.29404 0.2302 0.7771 0.16092 1.0332 -0.15143 c0.23376 -0.33232 0.17447 -0.79304 -0.13668 -1.0525 c-1.1758 -0.91414 -2.6194 -1.4011 -4.1654 -1.4011 c-1.0571 0.005254 -2.1136 0.2661 -3.0534 0.75424 c-0.9338 0.48476 -1.7497 1.1895 -2.3598 2.0384 c-0.7849 1.0922 -1.2034 2.3716 -1.2102 3.6998 z M13.148 16.4656 c0.45004 0.62518 0.336 1.5139 -0.25394 1.9814 c-1.3069 1.0164 -2.8942 1.5529 -4.5924 1.5529 c-1.2155 0 -2.423 -0.30608 -3.4916 -0.88502 c-0.16463 -0.089102 -0.2256 -0.29472 -0.1365 -0.45936 c0.089102 -0.16447 0.29472 -0.22562 0.4592 -0.13652 c0.96986 0.5254 2.0656 0.80318 3.1688 0.80318 c1.5461 0 2.9896 -0.48698 4.1742 -1.4084 c0.30522 -0.24136 0.36314 -0.7075 0.12975 -1.0424 c-0.25848 -0.30032 -0.74528 -0.36806 -1.0483 -0.14398 c-0.91668 0.7336 -2.0156 1.1096 -3.2556 1.1096 c-1.3474 0 -2.6424 -0.51762 -3.6462 -1.4573 c-0.95022 -0.92888 -1.4921 -2.2202 -1.4921 -3.5482 c0 -1.3237 0.5122 -2.547 1.4814 -3.5378 c0.40498 -0.37942 0.85096 -0.68716 1.3359 -0.9248 c0.16785 -0.082148 0.37094 -0.012871 0.45326 0.15516 c0.082324 0.16785 0.012871 0.37094 -0.15516 0.45326 c-0.4248 0.20816 -0.81524 0.47766 -1.1606 0.80066 c-0.832 0.85114 -1.2775 1.9108 -1.2775 3.0536 c0 1.1467 0.46766 2.2616 1.2829 3.0588 c0.87264 0.81658 2.003 1.2692 3.178 1.2692 c1.0823 0 2.0386 -0.32606 2.8426 -0.96902 c0.60028 -0.44428 1.507 -0.323 1.9895 0.25626 c0.0050782 0.0060938 0.01 0.012363 0.01457 0.018809 z M19.5504 19.32248 c0.18717 0 0.33894 0.15156 0.33894 0.33856 s-0.15176 0.33876 -0.33876 0.33876 l-2.6914 0 c-0.010332 0 -0.020488 -0.00033204 -0.030488 -0.0010156 c-0.0088086 0.0006836 -0.017617 0.0010156 -0.026426 0.0010156 c-0.76204 0 -1.3821 -0.61992 -1.3821 -1.3821 l0 -7.4639 c0 -0.18699 0.15176 -0.33876 0.33876 -0.33876 s0.33876 0.15176 0.33876 0.33876 l0 7.4641 c0 0.3618 0.27388 0.66076 0.62518 0.70024 c0.067578 -0.020488 0.14125 -0.019805 0.2102 0.004414 l2.6174 0 z M15.759 10.057 c-0.18717 0 -0.33876 -0.1516 -0.33876 -0.33878 l0 -2.2932 c0 -0.77508 0.60704 -1.3821 1.3821 -1.3821 l6.2034 0 c0.76204 0 1.3821 0.61992 1.3821 1.3821 c0 0.75934 -0.63296 1.4009 -1.3821 1.4009 l-1.7092 0 c-0.18699 0 -0.33876 -0.15176 -0.33876 -0.33876 s0.15176 -0.33876 0.33876 -0.33876 l1.7092 0 c0.37536 0 0.70462 -0.33808 0.70462 -0.72342 c0 -0.38196 -0.32268 -0.70462 -0.70462 -0.70462 l-6.2034 0 c-0.4016 0 -0.70462 0.30286 -0.70462 0.70462 l0 2.2932 c0 0.18699 -0.15176 0.33876 -0.33876 0.33876 z M23.0056 17.2166 c0.74934 0 1.3823 0.6416 1.3821 1.4009 c0 0.74916 -0.63296 1.3821 -1.3821 1.3821 l-1.9226 0 c-0.18699 0 -0.33876 -0.15176 -0.33876 -0.33876 s0.15176 -0.33876 0.33876 -0.33876 l1.9226 0 c0.37536 0 0.70462 -0.32928 0.70462 -0.70462 c0 -0.3855 -0.32928 -0.7236 -0.70462 -0.7236 l-5.141 0 c-0.18699 0 -0.33876 -0.15176 -0.33876 -0.33876 l0 -3.4906 c0 -0.18699 0.15176 -0.33876 0.33876 -0.33876 l4.4201 0 c0.38856 0 0.7046 -0.32454 0.7046 -0.72342 c0 -0.37536 -0.32928 -0.70462 -0.70462 -0.70462 l-4.4201 0 c-0.18699 0 -0.33876 -0.15176 -0.33876 -0.33876 l0 -3.4716 c0 -0.18699 0.15176 -0.33876 0.33876 -0.33876 l1.7053 0 c0.18699 0 0.33876 0.15176 0.33876 0.33876 s-0.15176 0.33876 -0.33876 0.33876 l-1.3666 0 l0 2.7943 l4.0814 0 c0.74916 0 1.3821 0.63296 1.3821 1.3821 c0 0.77236 -0.61992 1.4009 -1.3821 1.4009 l-4.0814 0 l0 2.8131 l4.8023 0 z"></path></g><g id="SvgjsG16579" featureKey="nameRightFeature-0" transform="matrix(5.760000000000001,0,0,5.760000000000001,163.24,-43.2)" fill="#364f6b"><path d="M1.26 20 c-0.14 0 -0.26 -0.12 -0.26 -0.26 l0 -11.98 c0 -0.14 0.12 -0.26 0.26 -0.26 l2.6 0 c0.14 0 0.26 0.12 0.26 0.26 l0 9.36 l4.5 0 c0.14 0 0.26 0.12 0.26 0.26 l0 2.36 c0 0.14 -0.12 0.26 -0.26 0.26 l-7.36 0 z M11.14 20 c-0.14 0 -0.26 -0.12 -0.26 -0.26 l0 -11.98 c0 -0.14 0.12 -0.26 0.26 -0.26 l2.6 0 c0.14 0 0.26 0.12 0.26 0.26 l0 9.36 l4.5 0 c0.14 0 0.26 0.12 0.26 0.26 l0 2.36 c0 0.14 -0.12 0.26 -0.26 0.26 l-7.36 0 z M21.020000000000003 20 c-0.14 0 -0.26 -0.12 -0.26 -0.26 l0 -11.98 c0 -0.14 0.12 -0.26 0.26 -0.26 l2.6 0 c0.14 0 0.26 0.12 0.26 0.26 l0 11.98 c0 0.14 -0.12 0.26 -0.26 0.26 l-2.6 0 z"></path></g>
			</g>
		</svg>
	