<?xml version="1.0" encoding="UTF-8" standalone="no"?> <!-- Created with Vectornator for iOS (http://vectornator.io/) --><!DOCTYPE svg PUBLIC "-//W3C//DTD SVG 1.1//EN" "http://www.w3.org/Graphics/SVG/1.1/DTD/svg11.dtd">
<svg style="fill-rule:evenodd;clip-rule:evenodd;stroke-linecap:round;stroke-linejoin:round;" xmlns:vectornator="http://vectornator.io" xmlns:xlink="http://www.w3.org/1999/xlink" xmlns="http://www.w3.org/2000/svg" xml:space="preserve" version="1.1" viewBox="0 0 64 80">
<metadata>
<vectornator:setting key="DynamicGuides" value="1"/>
<vectornator:setting key="Units" value="Points"/>
<vectornator:setting key="GuidesVisible" value="1"/>
<vectornator:setting key="RulersVisible" value="1"/>
<vectornator:setting key="SnapToGuides" value="1"/>
<vectornator:setting key="GridSpacing" value="36"/>
</metadata>
<defs/>
<g id="Untitled" vectornator:layerName="Untitled">
<path d="M19.385+32.3561L15.245+32.3561C15.1851+28.4823+12.585+25.3783+9.39496+25.3724C8.34562+25.3724+7.49496+24.3392+7.49496+23.0647L7.49496+22.0809C7.49495+20.8044+8.344+19.7678+9.39496+19.7611L10.475+19.7611C13.1088+19.76+15.2434+17.1666+15.2434+13.9676C15.2434+10.7688+13.1088+8.17526+10.475+8.17415C8.81811+8.17415+7.47496+6.54282+7.47496+4.53045L7.47496+1.60335C7.41261+0.697033+6.78877-3.77034e-07+6.03996-3.77034e-07C5.29115-3.77034e-07+4.66731+0.697033+4.60496+1.60335L4.60496+4.50616C4.61046+8.42748+7.22638+11.6047+10.455+11.6114C11.4537+11.6993+12.2269+12.709+12.2269+13.9251C12.2269+15.1413+11.4537+16.1509+10.455+16.2389L9.39496+16.2389C6.76284+16.2455+4.63046+18.8355+4.62496+22.0323L4.62496+23.0161C4.63046+26.213+6.76284+28.8029+9.39496+28.8096C11.0211+28.8089+12.3516+30.3819+12.395+32.3561L8.23496+32.3561C4.48171+32.3628+1.44047+36.0566+1.43496+40.6152L1.43496+62.5624C1.30689+68.034+3.63714+73.158+7.51867+75.9397C11.4002+78.7215+16.2198+78.7215+20.1013+75.9397C23.9828+73.158+26.3131+68.034+26.185+62.5624L26.185+40.6152C26.1795+36.0566+23.1383+32.3628+19.385+32.3561ZM4.29496+40.6152C4.32716+37.9887+6.07244+35.8689+8.23496+35.8298L12.375+35.8298L12.375+44.0646L4.29496+44.0646L4.29496+40.6152ZM23.295+62.5624C22.9699+68.6447+18.8133+73.3759+13.795+73.3759C8.77665+73.3759+4.62008+68.6447+4.29496+62.5624L4.29496+47.5504L23.295+47.5504L23.295+62.5624ZM23.295+44.0646L15.245+44.0646L15.245+35.8298L19.385+35.8298C21.5475+35.8689+23.2928+37.9887+23.325+40.6152L23.295+44.0646Z" fill-rule="evenodd" fill="#a50000" opacity="1"/>
<path d="M44.055+7.15392L31.105+7.15392C30.3152+7.15392+29.675+7.93152+29.675+8.89074L29.675+75.8619C29.675+76.8211+30.3152+77.5987+31.105+77.5987L44.105+77.5987C44.486+77.602+44.8523+77.4204+45.1226+77.0943C45.393+76.7682+45.545+76.3246+45.545+75.8619L45.545+8.89074C45.5453+8.4172+45.3865+7.96402+45.1052+7.63612C44.8239+7.30823+44.4445+7.13405+44.055+7.15392ZM42.625+14.9028L37.855+14.9028C37.3137+14.8479+36.7931+15.1676+36.5085+15.7295C36.224+16.2915+36.224+17+36.5085+17.562C36.7931+18.1239+37.3137+18.4435+37.855+18.3886L42.625+18.3886L42.625+23.4291L39.625+23.4291C39.0837+23.3742+38.5631+23.6939+38.2785+24.2557C37.994+24.8177+37.994+25.5263+38.2785+26.0883C38.5631+26.6501+39.0837+26.9698+39.625+26.9149L42.625+26.9149L42.625+31.9553L37.855+31.9553C37.065+31.955+36.4245+32.7327+36.4245+33.6922C36.4245+34.6517+37.065+35.4294+37.855+35.429L42.625+35.429L42.625+40.4694L39.625+40.4694C39.0837+40.4145+38.5631+40.7342+38.2785+41.2961C37.994+41.8581+37.994+42.5666+38.2785+43.1286C38.5631+43.6905+39.0837+44.0101+39.625+43.9552L42.625+43.9552L42.625+48.9957L37.855+48.9957C37.065+48.9953+36.4245+49.773+36.4245+50.7325C36.4245+51.692+37.065+52.4697+37.855+52.4694L42.625+52.4694L42.625+57.6191L39.625+57.6191C39.0837+57.5642+38.5631+57.8839+38.2785+58.4457C37.994+59.0077+37.994+59.7163+38.2785+60.2783C38.5631+60.8401+39.0837+61.1598+39.625+61.1049L42.625+61.1049L42.625+66.2547L37.855+66.2547C37.065+66.2543+36.4245+67.032+36.4245+67.9915C36.4245+68.951+37.065+69.7287+37.855+69.7283L42.625+69.7283L42.625+74.1129L32.535+74.1129L32.535+10.6276L42.625+10.6276L42.625+14.9028Z" fill-rule="evenodd" fill="#a50000" opacity="1"/>
<path d="M62.425+15.9109C62.4293+15.8869+62.4293+15.8621+62.425+15.8381C62.4062+15.7473+62.3828+15.6581+62.355+15.5709L62.355+15.5709L58.045+4.08106C57.8192+3.47072+57.3247+3.07223+56.7739+3.05668C56.2231+3.04112+55.714+3.41126+55.465+4.00819L50.685+15.4858L50.685+15.4858C50.654+15.5688+50.6273+15.6539+50.605+15.7409C50.605+15.7409+50.605+15.8138+50.605+15.8381C50.5903+15.967+50.5903+16.0977+50.605+16.2267L50.605+70.3113C50.3571+73.0871+51.4367+75.7908+53.3848+77.2731C55.3329+78.7552+57.8071+78.7552+59.7552+77.2731C61.7033+75.7908+62.7829+73.0871+62.535+70.3113L62.535+16.2753C62.5089+16.1495+62.472+16.0274+62.425+15.9109ZM56.675+8.81787L58.805+14.5385L54.285+14.5385L56.675+8.81787ZM59.595+70.3113C59.595+72.3908+58.2071+74.0765+56.495+74.0765C54.7829+74.0765+53.395+72.3908+53.395+70.3113L53.395+68.1737L59.595+68.1737L59.595+70.3113ZM59.595+64.6636L53.395+64.6636L53.395+18.0121L59.595+18.0121L59.595+64.6636Z" fill-rule="evenodd" fill="#a50000" opacity="1"/>
<text x="0" font-family="'Helvetica Neue', Helvetica, Arial-Unicode, Arial, Sans-serif" y="0" text-anchor="start" vectornator:text="from&#x20;the&#x20;Noun&#x20;Project" fill="#000000" font-size="4" vectornator:width="41.9062" opacity="1" transform="matrix(1 0 0 1 0 80)">
<tspan x="0" y="4" textLength="38.9062">
from the Noun Project</tspan>
</text>
</g>
</svg>
