<?xml version="1.0" encoding="UTF-8" standalone="no"?> <!-- Created with Vectornator for iOS (http://vectornator.io/) --><!DOCTYPE svg PUBLIC "-//W3C//DTD SVG 1.1//EN" "http://www.w3.org/Graphics/SVG/1.1/DTD/svg11.dtd">
<svg style="fill-rule:evenodd;clip-rule:evenodd;stroke-linecap:round;stroke-linejoin:round;" xmlns:vectornator="http://vectornator.io" xmlns:xlink="http://www.w3.org/1999/xlink" xmlns="http://www.w3.org/2000/svg" xml:space="preserve" version="1.1" viewBox="0 0 126.008 126.456">
<metadata>
<vectornator:setting key="DynamicGuides" value="1"/>
<vectornator:setting key="Units" value="Points"/>
<vectornator:setting key="GuidesVisible" value="1"/>
<vectornator:setting key="RulersVisible" value="1"/>
<vectornator:setting key="SnapToGuides" value="1"/>
<vectornator:setting key="GridSpacing" value="36"/>
</metadata>
<defs/>
<g id="Untitled" vectornator:layerName="Untitled">
<g opacity="1">
<path d="M58.31+82.905C59.14+82.905+59.82+82.225+59.82+81.385C59.82+80.545+59.14+79.865+58.31+79.865C57.47+79.865+56.79+80.545+56.79+81.385C56.79+82.225+57.47+82.905+58.31+82.905Z" opacity="1" fill="#e76f51"/>
<path d="M35.72+42.095L52.89+42.095C53.442+42.095+53.89+41.647+53.89+41.095L53.89+23.935C53.89+23.383+53.442+22.935+52.89+22.935L35.72+22.935C35.168+22.935+34.72+23.383+34.72+23.935L34.72+41.095C34.72+41.647+35.168+42.095+35.72+42.095ZM36.72+24.935L51.89+24.935L51.89+40.095L36.72+40.095L36.72+24.935Z" opacity="1" fill="#e76f51"/>
<path d="M49.43+26.395L39.18+26.395C38.628+26.395+38.18+26.843+38.18+27.395L38.18+37.635C38.18+38.187+38.628+38.635+39.18+38.635L49.43+38.635C49.982+38.635+50.43+38.187+50.43+37.635L50.43+27.395C50.43+26.843+49.982+26.395+49.43+26.395Z" opacity="1" fill="#e76f51"/>
<path d="M122.33+93.765L121.84+93.765L121.84+48.99C123.354+48.7+124.644+47.767+125.394+46.353C126.304+44.636+126.198+42.652+125.107+41.043L108.737+16.943C108.551+16.669+108.241+16.505+107.91+16.505L60.609+16.505L49.017+2.245C47.858+0.818+46.141+0+44.305+0C42.469+0+40.752+0.818+39.595+2.244L2.834+47.463C1.899+48.611+1.714+50.155+2.351+51.494C2.988+52.833+4.302+53.665+5.78+53.665C6.189+53.665+6.581+53.578+6.96+53.454L6.96+93.765L3.67+93.765C1.647+93.765+0+95.411+0+97.495C0+99.518+1.646+101.165+3.67+101.165L122.33+101.165C124.353+101.165+126+99.519+126+97.435C126+95.411+124.354+93.765+122.33+93.765ZM75.16+93.765L54.71+93.765L54.71+64.455L75.16+64.455C75.16+64.455+75.16+93.765+75.16+93.765ZM81.65+93.765L81.65+53.456C82.028+53.579+82.42+53.665+82.83+53.665C84.925+53.665+86.63+51.951+86.63+49.845C86.63+49.589+86.595+49.339+86.545+49.095L119.839+49.095L119.839+93.765C119.839+93.765+81.65+93.765+81.65+93.765ZM4.158+50.636C3.852+49.991+3.937+49.278+4.386+48.726L41.147+3.506C41.923+2.549+43.074+2+44.305+2C45.536+2+46.687+2.549+47.465+3.506L84.225+48.726C84.23+48.732+84.322+48.866+84.327+48.872C84.526+49.162+84.631+49.498+84.631+49.845C84.631+50.72+83.943+51.665+82.831+51.665C82.281+51.665+81.77+51.422+81.427+50.994L45.077+6.274C44.887+6.041+44.602+5.905+44.301+5.905C44+5.905+43.715+6.041+43.525+6.274L7.185+50.993C6.835+51.42+6.323+51.665+5.78+51.665C5.07+51.665+4.464+51.28+4.158+50.636ZM8.96+51.98L44.3+8.49L79.65+51.98L79.65+93.765L77.16+93.765L77.16+63.455C77.16+62.902+76.712+62.455+76.16+62.455L53.71+62.455C53.158+62.455+52.71+62.902+52.71+63.455L52.71+93.765L8.96+93.765L8.96+51.98Z" opacity="1" fill="#e76f51"/>
<path d="M116.82+61.195L84.78+61.195C84.228+61.195+83.78+61.642+83.78+62.195L83.78+83.115C83.78+83.668+84.228+84.115+84.78+84.115L116.82+84.115C117.372+84.115+117.82+83.668+117.82+83.115L117.82+62.195C117.82+61.643+117.372+61.195+116.82+61.195ZM115.82+78.104L101.8+78.104L101.8+63.195L115.82+63.195C115.82+63.195+115.82+78.104+115.82+78.104ZM99.8+63.195L99.8+78.104L85.78+78.104L85.78+63.195L99.8+63.195Z" opacity="1" fill="#e76f51"/>
<path d="M46.99+61.195L14.95+61.195C14.398+61.195+13.95+61.642+13.95+62.195L13.95+83.115C13.95+83.668+14.398+84.115+14.95+84.115L46.99+84.115C47.542+84.115+47.99+83.668+47.99+83.115L47.99+62.195C47.99+61.643+47.542+61.195+46.99+61.195ZM45.99+78.104L31.97+78.104L31.97+63.195L45.99+63.195C45.99+63.195+45.99+78.104+45.99+78.104ZM29.97+63.195L29.97+78.104L15.95+78.104L15.95+63.195L29.97+63.195Z" opacity="1" fill="#e76f51"/>
</g>
</g>
</svg>
