<?xml version="1.0" encoding="UTF-8" standalone="no"?> <!-- Created with Vectornator for iOS (http://vectornator.io/) --><!DOCTYPE svg PUBLIC "-//W3C//DTD SVG 1.1//EN" "http://www.w3.org/Graphics/SVG/1.1/DTD/svg11.dtd">
<svg style="fill-rule:evenodd;clip-rule:evenodd;stroke-linecap:round;stroke-linejoin:round;" xmlns:vectornator="http://vectornator.io" xmlns:xlink="http://www.w3.org/1999/xlink" xmlns="http://www.w3.org/2000/svg" xml:space="preserve" version="1.1" viewBox="0 0 69 86.25">
<metadata>
<vectornator:setting key="DynamicGuides" value="1"/>
<vectornator:setting key="Units" value="Points"/>
<vectornator:setting key="GuidesVisible" value="1"/>
<vectornator:setting key="GridSpacing" value="36"/>
<vectornator:setting key="SnapToGuides" value="1"/>
<vectornator:setting key="RulersVisible" value="1"/>
</metadata>
<defs/>
<g id="Untitled" vectornator:layerName="Untitled">
<g opacity="1">
<path d="M2.73438+40.1099C2.93262+40.3452+3.21583+40.4663+3.50098+40.4663C3.72754+40.4663+3.95606+40.3892+4.14356+40.2319L6.83887+37.9647L6.83887+71.8618L4.35938+71.8618C3.80665+71.8618+3.35938+72.3091+3.35938+72.8618C3.35938+73.4145+3.80665+73.8618+4.35938+73.8618C30.606+73.8618+38.3913+73.8618+64.6416+73.8618C65.1943+73.8618+65.6416+73.4145+65.6416+72.8618C65.6416+72.3091+65.1943+71.8618+64.6416+71.8618L62.1621+71.8618L62.1621+37.965L64.8565+40.2319C65.2783+40.5857+65.9084+40.534+66.2656+40.1099C66.6211+39.688+66.5664+39.0571+66.1436+38.7007L35.1484+12.6226C34.7774+12.3101+34.2324+12.3101+33.8613+12.6226L27.9707+17.5776C27.8966+17.6399+27.8486+17.7187+27.7974+17.7953C27.2856+17.3835+26.6374+17.1421+25.9375+17.1421L21.9795+17.1421C20.3437+17.1421+19.0137+18.4722+19.0137+20.1079L19.0137+20.9292L16.9199+20.9292C16.3672+20.9292+15.9199+21.3765+15.9199+21.9292L15.9199+27.9221C15.7439+27.9485+15.5713+28.005+15.4248+28.1284L2.85645+38.7007C2.43359+39.0561+2.37891+39.687+2.73438+40.1099ZM38.1904+71.8618L38.1904+46.5532L54.5078+46.5532L54.5078+71.8618C54.5078+71.8618+38.1904+71.8618+38.1904+71.8618ZM17.9199+22.9292L22.1094+22.9292L22.1094+40.0474L17.9199+40.0474L17.9199+22.9292ZM15.9199+30.3259L15.9199+41.0474C15.9199+41.6001+16.3672+42.0474+16.9199+42.0474L23.1094+42.0474C23.6621+42.0474+24.1094+41.6001+24.1094+41.0474L24.1094+21.9292C24.1094+21.3765+23.6621+20.9292+23.1094+20.9292L21.0137+20.9292L21.0137+20.1079C21.0137+19.5757+21.4473+19.1421+21.9795+19.1421L25.9375+19.1421C26.3887+19.1421+26.7754+19.4497+26.8711+19.8589L29.4219+32.6489C29.7353+33.9995+30.9238+34.9429+32.3105+34.9429L35.8428+34.9429L35.8428+36.4087C35.8428+36.9614+36.29+37.4087+36.8428+37.4087L47.7539+37.4087C49.6338+37.4087+51.1641+35.8784+51.1641+33.9985C51.1641+32.1177+49.6338+30.5874+47.7539+30.5874L36.8428+30.5874C36.29+30.5874+35.8428+31.0347+35.8428+31.5874L35.8428+32.9429L32.3105+32.9429C31.8584+32.9429+31.4717+32.6353+31.376+32.2271L28.8252+19.437C28.8152+19.3935+28.7966+19.3544+28.7847+19.3118C28.9529+19.2826+29.1172+19.2263+29.2578+19.1089L34.5049+14.6948L60.1621+36.2822L60.1621+71.8618L56.5078+71.8618L56.5078+45.5532C56.5078+45.0005+56.0605+44.5532+55.5078+44.5532L37.1904+44.5532C36.6377+44.5532+36.1904+45.0005+36.1904+45.5532L36.1904+71.8618L8.83887+71.8618L8.83887+36.2823L15.9199+30.3259ZM37.8428+32.5874L47.7539+32.5874C48.5312+32.5874+49.1641+33.2202+49.1641+33.9985C49.1641+34.7759+48.5312+35.4087+47.7539+35.4087L37.8428+35.4087L37.8428+32.5874Z" opacity="1" fill="#265289"/>
<path d="M13.7178+63.6108L22.2452+63.6108C22.2504+63.6109+22.2546+63.6138+22.2598+63.6138C22.2649+63.6138+22.2692+63.6109+22.2743+63.6108L30.8018+63.6108C31.3545+63.6108+31.8018+63.1636+31.8018+62.6108L31.8018+45.5561C31.8018+45.0034+31.3545+44.5561+30.8018+44.5561L22.2743+44.5561C22.2692+44.5561+22.2649+44.5532+22.2598+44.5532C22.2546+44.5532+22.2504+44.5561+22.2452+44.5561L13.7178+44.5561C13.165+44.5561+12.7178+45.0034+12.7178+45.5561L12.7178+62.6108C12.7178+63.1636+13.165+63.6108+13.7178+63.6108ZM14.7178+55.0835L21.2598+55.0835L21.2598+61.6108L14.7178+61.6108L14.7178+55.0835ZM23.2598+61.6108L23.2598+55.0835L29.8018+55.0835L29.8018+61.6108L23.2598+61.6108ZM29.8018+53.0835L23.2598+53.0835L23.2598+46.5562L29.8018+46.5562L29.8018+53.0835ZM21.2598+46.5561L21.2598+53.0835L14.7178+53.0835L14.7178+46.5561L21.2598+46.5561Z" opacity="1" fill="#265289"/>
<path d="M42.5312+55.7446C40.624+55.7446+39.0732+57.2954+39.0732+59.2026C39.0732+61.1147+40.624+62.6704+42.5312+62.6704C44.4434+62.6704+45.999+61.1147+45.999+59.2026C45.999+57.2954+44.4434+55.7446+42.5312+55.7446ZM42.5312+60.6704C41.7275+60.6704+41.0732+60.0122+41.0732+59.2026C41.0732+58.3989+41.7275+57.7446+42.5312+57.7446C43.3408+57.7446+43.999+58.3989+43.999+59.2026C43.999+60.0122+43.3408+60.6704+42.5312+60.6704Z" opacity="1" fill="#265289"/>
</g>
<path d="M69+86.25L0+86.25" opacity="1" fill="#000000"/>
<path d="M69+70.4993L69+86.25" opacity="1" fill="#000000"/>
</g>
</svg>
