<?xml version="1.0" encoding="UTF-8" standalone="no"?> <!-- Created with Vectornator for iOS (http://vectornator.io/) --><!DOCTYPE svg PUBLIC "-//W3C//DTD SVG 1.1//EN" "http://www.w3.org/Graphics/SVG/1.1/DTD/svg11.dtd">
<svg style="fill-rule:evenodd;clip-rule:evenodd;stroke-linecap:round;stroke-linejoin:round;" xmlns:vectornator="http://vectornator.io" xmlns:xlink="http://www.w3.org/1999/xlink" xmlns="http://www.w3.org/2000/svg" xml:space="preserve" version="1.1" viewBox="0 0 100 125">
<metadata>
<vectornator:setting key="DynamicGuides" value="1"/>
<vectornator:setting key="Units" value="Points"/>
<vectornator:setting key="GuidesVisible" value="1"/>
<vectornator:setting key="RulersVisible" value="1"/>
<vectornator:setting key="SnapToGuides" value="1"/>
<vectornator:setting key="GridSpacing" value="36"/>
</metadata>
<defs/>
<g id="Untitled" vectornator:layerName="Untitled">
<path d="M28+34.5L28+20.5L18+20.5L18+34.5C18+34.8+9+44.5+9+44.5L37+44.5C37+44.5+28+34.8+28+34.5Z" opacity="1" fill="#265289"/>
<path d="M40+104.5L62+104.5L62+91.5L40+91.5L40+104.5ZM47+97.5L54+97.5C54.6+97.5+55+97.9+55+98.5C55+99.1+54.6+99.5+54+99.5L47+99.5C46.4+99.5+46+99.1+46+98.5C46+97.9+46.4+97.5+47+97.5ZM40+76.5L62+76.5L62+65.5L40+65.5L40+76.5ZM47+70.5L54+70.5C54.6+70.5+55+70.9+55+71.5C55+72.1+54.6+72.5+54+72.5L47+72.5C46.4+72.5+46+72.1+46+71.5C46+70.9+46.4+70.5+47+70.5ZM40+89.5L62+89.5L62+78.5L40+78.5L40+89.5ZM47+83.5L54+83.5C54.6+83.5+55+83.9+55+84.5C55+85.1+54.6+85.5+54+85.5L47+85.5C46.4+85.5+46+85.1+46+84.5C46+83.9+46.4+83.5+47+83.5Z" opacity="1" fill="#265289"/>
<path d="M64+104.5L94+104.5L94+73.5L64+73.5L64+104.5ZM67+77.5C67+76.9+67.4+76.5+68+76.5C68.6+76.5+69+76.9+69+77.5L69+85.5C69+86.1+68.6+86.5+68+86.5C67.4+86.5+67+86.1+67+85.5L67+77.5ZM64+20.5L64+71.5L94+71.5L94+20.5L64+20.5ZM69+59.5L69+67.5C69+68.1+68.6+68.5+68+68.5C67.4+68.5+67+68.1+67+67.5L67+59.5C67+58.9+67.4+58.5+68+58.5C68.6+58.5+69+58.9+69+59.5Z" opacity="1" fill="#265289"/>
<path d="M8+65.5L38+65.5L38+67.5L8+67.5L8+65.5ZM8+68.5L8+104.5L38+104.5L38+68.5L8+68.5ZM28.6+71C29.4+71+30+71.6+30+72.3C30+73+29.4+73.6+28.6+73.6C27.8+73.6+27.2+73+27.2+72.3C27.2+71.6+27.8+71+28.6+71ZM23.2+71C24+71+24.6+71.6+24.6+72.3C24.6+73+24+73.6+23.2+73.6C22.4+73.6+21.8+73+21.8+72.3C21.8+71.6+22.4+71+23.2+71ZM17.7+71C18.5+71+19.1+71.6+19.1+72.3C19.1+73+18.5+73.6+17.7+73.6C16.9+73.6+16.3+73+16.3+72.3C16.3+71.6+16.9+71+17.7+71ZM12.2+71C13+71+13.6+71.6+13.6+72.3C13.6+73+13+73.6+12.2+73.6C11.4+73.6+10.8+73+10.8+72.3C10.8+71.6+11.4+71+12.2+71ZM33+96.5L13+96.5L13+83.5L33+83.5L33+96.5ZM34+78.5L12+78.5C11.4+78.5+11+78.1+11+77.5C11+76.9+11.4+76.5+12+76.5L34+76.5C34.6+76.5+35+76.9+35+77.5C35+78.1+34.6+78.5+34+78.5ZM34.1+73.7C33.3+73.7+32.7+73.1+32.7+72.4C32.7+71.7+33.3+71.1+34.1+71.1C34.9+71.1+35.5+71.7+35.5+72.4C35.5+73.1+34.9+73.7+34.1+73.7Z" opacity="1" fill="#265289"/>
<path d="M23+51.4L23+48.1C23+47.5+22.6+47.1+22+47.1C21.4+47.1+21+47.5+21+48.1L21+51.4C21+52+21.4+52.4+22+52.4C22.6+52.4+23+51.9+23+51.4ZM29+51.4L29+48.1C29+47.5+28.6+47.1+28+47.1C27.4+47.1+27+47.5+27+48.1L27+51.4C27+52+27.4+52.4+28+52.4C28.6+52.4+29+51.9+29+51.4ZM17+51.4L17+48.1C17+47.5+16.6+47.1+16+47.1C15.4+47.1+15+47.5+15+48.1L15+51.4C15+52+15.4+52.4+16+52.4C16.6+52.4+17+51.9+17+51.4Z" opacity="1" fill="#165289"/>
</g>
</svg>
