<?xml version="1.0" encoding="UTF-8" standalone="no"?> <!-- Created with Vectornator for iOS (http://vectornator.io/) --><!DOCTYPE svg PUBLIC "-//W3C//DTD SVG 1.1//EN" "http://www.w3.org/Graphics/SVG/1.1/DTD/svg11.dtd">
<svg style="fill-rule:evenodd;clip-rule:evenodd;stroke-linecap:round;stroke-linejoin:round;" xmlns:vectornator="http://vectornator.io" xmlns:xlink="http://www.w3.org/1999/xlink" xmlns="http://www.w3.org/2000/svg" xml:space="preserve" version="1.1" viewBox="0 0 100 125">
<metadata>
<vectornator:setting key="DynamicGuides" value="1"/>
<vectornator:setting key="Units" value="Points"/>
<vectornator:setting key="GuidesVisible" value="1"/>
<vectornator:setting key="RulersVisible" value="1"/>
<vectornator:setting key="SnapToGuides" value="1"/>
<vectornator:setting key="GridSpacing" value="36"/>
</metadata>
<defs/>
<g id="Untitled" vectornator:layerName="Untitled">
<path d="M63.65+86.1052C64.35+86.1052+64.95+85.3005+64.95+84.3617L64.95+81.8134C64.95+80.8745+64.35+80.0698+63.65+80.0698L61.75+80.0698C61.45+77.9239+60.85+75.9121+59.85+74.0344L61.25+72.1567C61.75+71.4861+61.75+70.4132+61.25+69.7426L59.85+67.8649C59.35+67.1943+58.55+67.1943+58.05+67.8649L56.65+69.7426C55.25+68.5355+53.75+67.5966+52.15+67.1943L52.15+64.646C52.15+63.7071+51.55+62.9024+50.85+62.9024L48.95+62.9024C48.25+62.9024+47.65+63.7071+47.65+64.646L47.65+67.1943C46.05+67.5966+44.55+68.4014+43.15+69.7426L41.85+67.999C41.35+67.3284+40.55+67.3284+40.05+67.999L38.65+69.8767C38.15+70.5473+38.15+71.6202+38.65+72.2908L39.95+74.0344C38.95+75.9121+38.35+77.9239+38.05+80.0698L36.15+80.0698C35.45+80.0698+34.85+80.8745+34.85+81.8134L34.85+84.3617C34.85+85.3005+35.45+86.1052+36.15+86.1052L38.05+86.1052C38.35+88.2512+38.95+90.263+39.95+92.1407L38.65+93.8842C38.15+94.5548+38.15+95.6278+38.65+96.2984L40.05+98.1761C40.55+98.8467+41.35+98.8467+41.85+98.1761L43.15+96.4325C44.55+97.6396+46.05+98.5784+47.65+98.9808L47.65+101.529C47.65+102.468+48.25+103.273+48.95+103.273L50.85+103.273C51.55+103.273+52.15+102.468+52.15+101.529L52.15+98.9808C53.75+98.5784+55.25+97.7737+56.65+96.4325L57.95+98.1761C58.45+98.8467+59.25+98.8467+59.75+98.1761L61.15+96.2984C61.65+95.6278+61.65+94.5548+61.15+93.8842L59.85+92.1407C60.75+90.263+61.45+88.2512+61.65+86.1052L63.65+86.1052ZM54.55+89.3241C52.05+92.6771+47.95+92.6771+45.35+89.3241C42.75+85.9711+42.85+80.4722+45.35+76.9851C47.85+73.4979+51.95+73.632+54.55+76.9851C57.15+80.3381+57.05+85.837+54.55+89.3241ZM80.15+125L65.35+125L65.35+118.562C65.35+117.221+65.85+115.88+66.55+115.075C70.85+110.247+75.55+107.162+76.55+106.492C76.65+106.357+76.75+106.223+76.75+106.089L76.75+96.969C75.95+96.1643+75.35+94.9572+75.35+93.4819L75.35+84.0934C75.35+79.3992+78.15+75.6439+81.65+75.6439L82.45+75.6439L83.25+75.6439C86.75+75.6439+89.55+79.3992+89.55+84.0934L89.55+93.4819C89.55+94.9572+88.95+96.2984+88.15+96.969L88.15+106.089C88.15+106.223+88.25+106.357+88.35+106.492C89.35+107.162+93.95+110.247+98.35+115.075C99.15+115.88+99.55+117.221+99.55+118.562L99.55+125L84.65+125L83.15+116.014C86.15+110.515+82.95+110.247+82.35+110.247L82.35+110.247L82.35+110.247C81.75+110.247+78.65+110.515+81.55+116.014L80.15+125ZM18.25+116.014C21.25+110.515+18.05+110.247+17.45+110.247L17.45+110.247L17.45+110.247C16.85+110.247+13.75+110.515+16.65+116.014L15.15+125L0.449999+125L0.449999+118.562C0.449999+117.221+0.949999+115.88+1.65+115.075C5.95+110.247+10.65+107.162+11.65+106.492C11.75+106.357+11.85+106.223+11.85+106.089L11.85+96.969C11.05+96.1643+10.45+94.9572+10.45+93.4819L10.45+84.0934C10.45+79.3992+13.25+75.6439+16.75+75.6439L17.55+75.6439L18.35+75.6439C21.85+75.6439+24.65+79.3992+24.65+84.0934L24.65+93.4819C24.65+94.9572+24.05+96.2984+23.25+96.969L23.25+106.089C23.25+106.223+23.35+106.357+23.45+106.492C24.45+107.162+29.05+110.247+33.45+115.075C34.25+115.88+34.65+117.221+34.65+118.562L34.65+125L19.75+125L18.25+116.014ZM66.95+49.3563L52.15+49.3563L50.65+40.3702C53.65+34.8713+50.45+34.603+49.85+34.603L49.85+34.603L49.85+34.603C49.25+34.603+46.15+34.8713+49.05+40.3702L47.55+49.3563L32.95+49.3563L32.95+42.9185C32.95+41.5773+33.45+40.2361+34.15+39.4314C38.45+34.603+43.15+31.5183+44.15+30.8477C44.25+30.7135+44.35+30.5794+44.35+30.4453L44.35+21.3251C43.55+20.5204+42.95+19.3133+42.95+17.838L42.95+8.44958C42.95+3.75537+45.75+1.33484e-06+49.25+1.33484e-06L49.95+1.33484e-06L50.75+1.33484e-06C54.25+1.33484e-06+57.05+3.75537+57.05+8.44958L57.05+17.838C57.05+19.3133+56.45+20.6545+55.65+21.3251L55.65+30.4453C55.65+30.5794+55.75+30.7135+55.85+30.8477C56.85+31.5183+61.45+34.603+65.85+39.4314C66.65+40.2361+67.05+41.5773+67.05+42.9185L67.05+49.3563L66.95+49.3563Z" fill-rule="evenodd" fill="#a50000" opacity="1"/>
</g>
</svg>
