<?xml version="1.0" encoding="UTF-8" standalone="no"?> <!-- Created with Vectornator for iOS (http://vectornator.io/) --><!DOCTYPE svg PUBLIC "-//W3C//DTD SVG 1.1//EN" "http://www.w3.org/Graphics/SVG/1.1/DTD/svg11.dtd">
<svg style="fill-rule:evenodd;clip-rule:evenodd;stroke-linecap:round;stroke-linejoin:round;" xmlns:vectornator="http://vectornator.io" xmlns:xlink="http://www.w3.org/1999/xlink" xmlns="http://www.w3.org/2000/svg" xml:space="preserve" version="1.1" viewBox="0 0 100 125">
<metadata>
<vectornator:setting key="DynamicGuides" value="1"/>
<vectornator:setting key="Units" value="Points"/>
<vectornator:setting key="GuidesVisible" value="1"/>
<vectornator:setting key="RulersVisible" value="1"/>
<vectornator:setting key="SnapToGuides" value="1"/>
<vectornator:setting key="GridSpacing" value="36"/>
</metadata>
<defs/>
<g id="Untitled" vectornator:layerName="Untitled">
<path d="M63.65+77.4951C64.35+77.4951+64.95+76.8951+64.95+76.1951L64.95+74.2951C64.95+73.5951+64.35+72.9951+63.65+72.9951L61.75+72.9951C61.45+71.3951+60.85+69.8951+59.85+68.4951L61.25+67.0951C61.75+66.5951+61.75+65.7951+61.25+65.2951L59.85+63.8951C59.35+63.3951+58.55+63.3951+58.05+63.8951L56.65+65.2951C55.25+64.3951+53.75+63.6951+52.15+63.3951L52.15+61.4951C52.15+60.7951+51.55+60.1951+50.85+60.1951L48.95+60.1951C48.25+60.1951+47.65+60.7951+47.65+61.4951L47.65+63.3951C46.05+63.6951+44.55+64.2951+43.15+65.2951L41.85+63.9951C41.35+63.4951+40.55+63.4951+40.05+63.9951L38.65+65.3951C38.15+65.8951+38.15+66.6951+38.65+67.1951L39.95+68.4951C38.95+69.8951+38.35+71.3951+38.05+72.9951L36.15+72.9951C35.45+72.9951+34.85+73.5951+34.85+74.2951L34.85+76.1951C34.85+76.8951+35.45+77.4951+36.15+77.4951L38.05+77.4951C38.35+79.0951+38.95+80.5951+39.95+81.9951L38.65+83.2951C38.15+83.7951+38.15+84.5951+38.65+85.0951L40.05+86.4951C40.55+86.9951+41.35+86.9951+41.85+86.4951L43.15+85.1951C44.55+86.0951+46.05+86.7951+47.65+87.0951L47.65+88.9951C47.65+89.6951+48.25+90.2951+48.95+90.2951L50.85+90.2951C51.55+90.2951+52.15+89.6951+52.15+88.9951L52.15+87.0951C53.75+86.7951+55.25+86.1951+56.65+85.1951L57.95+86.4951C58.45+86.9951+59.25+86.9951+59.75+86.4951L61.15+85.0951C61.65+84.5951+61.65+83.7951+61.15+83.2951L59.85+81.9951C60.75+80.5951+61.45+79.0951+61.65+77.4951L63.65+77.4951ZM54.55+79.8951C52.05+82.3951+47.95+82.3951+45.35+79.8951C42.75+77.3951+42.85+73.2951+45.35+70.6951C47.85+68.0951+51.95+68.1951+54.55+70.6951C57.15+73.1951+57.05+77.2951+54.55+79.8951ZM80.15+106.495L65.35+106.495L65.35+101.695C65.35+100.695+65.85+99.6951+66.55+99.0951C70.85+95.4951+75.55+93.1951+76.55+92.6951C76.65+92.5951+76.75+92.4951+76.75+92.3951L76.75+85.5951C75.95+84.9951+75.35+84.0951+75.35+82.9951L75.35+75.9951C75.35+72.4951+78.15+69.6951+81.65+69.6951L82.45+69.6951L83.25+69.6951C86.75+69.6951+89.55+72.4951+89.55+75.9951L89.55+82.9951C89.55+84.0951+88.95+85.0951+88.15+85.5951L88.15+92.3951C88.15+92.4951+88.25+92.5951+88.35+92.6951C89.35+93.1951+93.95+95.4951+98.35+99.0951C99.15+99.6951+99.55+100.695+99.55+101.695L99.55+106.495L84.65+106.495L83.15+99.7951C86.15+95.6951+82.95+95.4951+82.35+95.4951L82.35+95.4951L82.35+95.4951C81.75+95.4951+78.65+95.6951+81.55+99.7951L80.15+106.495ZM18.25+99.7951C21.25+95.6951+18.05+95.4951+17.45+95.4951L17.45+95.4951L17.45+95.4951C16.85+95.4951+13.75+95.6951+16.65+99.7951L15.15+106.495L0.449999+106.495L0.449999+101.695C0.449999+100.695+0.949999+99.6951+1.65+99.0951C5.95+95.4951+10.65+93.1951+11.65+92.6951C11.75+92.5951+11.85+92.4951+11.85+92.3951L11.85+85.5951C11.05+84.9951+10.45+84.0951+10.45+82.9951L10.45+75.9951C10.45+72.4951+13.25+69.6951+16.75+69.6951L17.55+69.6951L18.35+69.6951C21.85+69.6951+24.65+72.4951+24.65+75.9951L24.65+82.9951C24.65+84.0951+24.05+85.0951+23.25+85.5951L23.25+92.3951C23.25+92.4951+23.35+92.5951+23.45+92.6951C24.45+93.1951+29.05+95.4951+33.45+99.0951C34.25+99.6951+34.65+100.695+34.65+101.695L34.65+106.495L19.75+106.495L18.25+99.7951ZM66.95+50.0951L52.15+50.0951L50.65+43.3951C53.65+39.2951+50.45+39.0951+49.85+39.0951L49.85+39.0951L49.85+39.0951C49.25+39.0951+46.15+39.2951+49.05+43.3951L47.55+50.0951L32.95+50.0951L32.95+45.2951C32.95+44.2951+33.45+43.2951+34.15+42.6951C38.45+39.0951+43.15+36.7951+44.15+36.2951C44.25+36.1951+44.35+36.0951+44.35+35.9951L44.35+29.1951C43.55+28.5951+42.95+27.6951+42.95+26.5951L42.95+19.5951C42.95+16.0951+45.75+13.2951+49.25+13.2951L49.95+13.2951L50.75+13.2951C54.25+13.2951+57.05+16.0951+57.05+19.5951L57.05+26.5951C57.05+27.6951+56.45+28.6951+55.65+29.1951L55.65+35.9951C55.65+36.0951+55.75+36.1951+55.85+36.2951C56.85+36.7951+61.45+39.0951+65.85+42.6951C66.65+43.2951+67.05+44.2951+67.05+45.2951L67.05+50.0951L66.95+50.0951Z" opacity="1" fill="#f08f08"/>
</g>
</svg>
