<?xml version="1.0" encoding="UTF-8" standalone="no"?> <!-- Created with Vectornator for iOS (http://vectornator.io/) --><!DOCTYPE svg PUBLIC "-//W3C//DTD SVG 1.1//EN" "http://www.w3.org/Graphics/SVG/1.1/DTD/svg11.dtd">
<svg style="fill-rule:evenodd;clip-rule:evenodd;stroke-linecap:round;stroke-linejoin:round;" xmlns:vectornator="http://vectornator.io" xmlns:xlink="http://www.w3.org/1999/xlink" xmlns="http://www.w3.org/2000/svg" xml:space="preserve" version="1.1" viewBox="0 0 100.002 125">
<metadata>
<vectornator:setting key="DynamicGuides" value="1"/>
<vectornator:setting key="Units" value="Points"/>
<vectornator:setting key="GuidesVisible" value="1"/>
<vectornator:setting key="RulersVisible" value="1"/>
<vectornator:setting key="SnapToGuides" value="1"/>
<vectornator:setting key="GridSpacing" value="36"/>
</metadata>
<defs/>
<g id="Untitled" vectornator:layerName="Untitled">
<g opacity="1">
<path d="M73.26+95.763C57.754+95.763+42.248+95.763+26.742+95.763C24.983+95.18+24.387+93.925+24.389+92.124C24.418+72.374+24.417+52.624+24.389+32.875C24.387+31.075+24.98+29.818+26.742+29.237C42.248+29.237+57.754+29.237+73.26+29.237C75.019+29.82+75.615+31.075+75.613+32.876C75.584+52.626+75.584+72.375+75.613+92.125C75.614+93.925+75.019+95.18+73.26+95.763ZM68.906+88.942C68.906+71.086+68.906+53.302+68.906+35.521C67.004+35.521+65.152+35.521+63.251+35.521C63.251+35.903+63.262+36.246+63.249+36.588C63.183+38.373+62.07+39.792+60.344+40.197C59.785+40.328+59.185+40.311+58.604+40.312C52.694+40.319+46.784+40.322+40.873+40.313C38.31+40.309+36.769+38.777+36.753+36.254C36.751+36.006+36.753+35.758+36.753+35.531C34.797+35.531+32.947+35.531+31.1+35.531C31.1+53.362+31.1+71.142+31.1+88.942C43.723+88.942+56.293+88.942+68.906+88.942ZM36.725+30.912C36.513+30.912+36.344+30.912+36.176+30.912C33.361+30.912+30.546+30.91+27.731+30.912C26.46+30.913+26.085+31.297+26.085+32.593C26.085+52.535+26.085+72.477+26.085+92.419C26.085+93.708+26.465+94.092+27.742+94.092C42.574+94.093+57.406+94.093+72.238+94.092C73.528+94.092+73.918+93.71+73.918+92.443C73.919+72.479+73.919+52.516+73.918+32.552C73.918+31.304+73.532+30.914+72.298+30.913C69.505+30.911+66.712+30.912+63.918+30.913C63.71+30.913+63.502+30.934+63.292+30.945C63.292+31.919+63.292+32.839+63.292+33.81C65.298+33.81+67.264+33.809+69.23+33.81C70.4+33.81+70.622+34.036+70.623+35.224C70.625+53.218+70.627+71.211+70.628+89.204C70.629+90.415+70.416+90.622+69.182+90.623C57.1+90.623+45.018+90.623+32.936+90.623C32.091+90.623+31.247+90.631+30.403+90.612C29.698+90.595+29.434+90.324+29.39+89.623C29.377+89.407+29.387+89.19+29.387+88.974C29.387+76.091+29.387+63.207+29.386+50.324C29.386+45.236+29.383+40.148+29.388+35.059C29.389+34.077+29.652+33.818+30.618+33.812C31.961+33.805+33.303+33.811+34.645+33.811C35.33+33.811+36.015+33.811+36.725+33.811C36.725+32.825+36.725+31.921+36.725+30.912ZM61.562+35.524C53.813+35.524+46.142+35.524+38.34+35.524C38.446+36.213+38.429+36.89+38.665+37.462C39.072+38.446+39.977+38.671+40.977+38.67C46.994+38.661+53.01+38.666+59.027+38.663C59.307+38.663+59.591+38.65+59.867+38.604C60.763+38.454+61.48+37.693+61.555+36.795C61.59+36.388+61.562+35.977+61.562+35.524ZM61.553+30.958C53.814+30.958+46.141+30.958+38.472+30.958C38.472+31.925+38.472+32.844+38.472+33.761C46.188+33.761+53.86+33.761+61.553+33.761C61.553+32.81+61.553+31.906+61.553+30.958Z" opacity="1" fill="#0079bb"/>
<path d="M55.018+69.502C52.334+69.502+49.651+69.504+46.968+69.498C46.711+69.498+46.387+69.533+46.216+69.397C45.978+69.209+45.725+68.878+45.722+68.605C45.72+68.366+46.023+68.087+46.251+67.898C46.375+67.796+46.624+67.83+46.816+67.83C52.27+67.827+57.723+67.827+63.176+67.83C63.39+67.83+63.665+67.799+63.803+67.914C64.029+68.102+64.297+68.397+64.3+68.649C64.304+68.9+64.049+69.22+63.819+69.389C63.638+69.521+63.323+69.495+63.067+69.496C60.385+69.504+57.701+69.502+55.018+69.502Z" fill-rule="evenodd" fill="#0079bb" opacity="1"/>
<path d="M55.056+48.726C57.718+48.726+60.38+48.726+63.042+48.726C63.215+48.726+63.39+48.716+63.561+48.738C64.029+48.798+64.323+49.056+64.334+49.542C64.346+50.029+64.055+50.294+63.596+50.382C63.449+50.41+63.294+50.405+63.143+50.405C57.711+50.405+52.279+50.404+46.847+50.401C46.696+50.401+46.54+50.407+46.394+50.375C45.937+50.277+45.661+50.008+45.685+49.516C45.707+49.056+45.99+48.813+46.422+48.747C46.634+48.715+46.854+48.729+47.07+48.729C49.732+48.729+52.393+48.729+55.055+48.729C55.056+48.728+55.056+48.727+55.056+48.726Z" fill-rule="evenodd" fill="#0079bb" opacity="1"/>
<path d="M54.988+59.931C52.283+59.931+49.578+59.934+46.873+59.925C46.601+59.924+46.265+59.924+46.073+59.775C45.872+59.617+45.693+59.27+45.719+59.028C45.743+58.787+45.993+58.506+46.221+58.367C46.419+58.246+46.724+58.28+46.982+58.279C52.327+58.275+57.671+58.276+63.016+58.277C63.167+58.277+63.32+58.273+63.47+58.286C63.99+58.33+64.35+58.574+64.332+59.134C64.315+59.688+63.957+59.93+63.427+59.932C61.934+59.935+60.442+59.932+58.948+59.932C57.628+59.931+56.308+59.931+54.988+59.931Z" fill-rule="evenodd" fill="#0079bb" opacity="1"/>
<path d="M54.982+79.031C52.32+79.031+49.658+79.032+46.996+79.031C46.78+79.031+46.507+79.098+46.36+78.993C46.093+78.802+45.737+78.514+45.723+78.251C45.709+77.987+46.021+77.633+46.282+77.453C46.481+77.316+46.826+77.373+47.105+77.372C52.385+77.371+57.666+77.373+62.947+77.378C63.205+77.378+63.526+77.321+63.707+77.449C63.97+77.635+64.296+77.969+64.288+78.231C64.281+78.495+63.932+78.791+63.668+78.988C63.524+79.094+63.248+79.03+63.032+79.03C60.349+79.032+57.665+79.031+54.982+79.031Z" fill-rule="evenodd" fill="#0079bb" opacity="1"/>
<path d="M39.078+65.223C40.981+65.218+42.545+66.782+42.537+68.684C42.53+70.553+40.967+72.113+39.104+72.109C37.2+72.106+35.628+70.531+35.644+68.643C35.661+66.76+37.198+65.228+39.078+65.223ZM39.057+66.894C38.082+66.908+37.285+67.717+37.297+68.68C37.31+69.646+38.116+70.436+39.09+70.435C40.088+70.435+40.911+69.597+40.878+68.614C40.845+67.637+40.043+66.879+39.057+66.894Z" fill-rule="evenodd" fill="#0079bb" opacity="1"/>
<path d="M39.074+53.01C37.198+52.999+35.658+51.459+35.643+49.579C35.629+47.683+37.201+46.115+39.105+46.122C41.012+46.13+42.575+47.719+42.533+49.608C42.491+51.497+40.942+53.021+39.074+53.01ZM39.094+51.331C40.066+51.334+40.877+50.536+40.877+49.576C40.877+48.605+40.087+47.805+39.116+47.793C38.11+47.781+37.283+48.594+37.297+49.581C37.311+50.541+38.118+51.328+39.094+51.331Z" fill-rule="evenodd" fill="#0079bb" opacity="1"/>
<path d="M39.01+62.551C37.118+62.494+35.608+60.927+35.648+59.063C35.688+57.149+37.309+55.585+39.17+55.664C41.074+55.744+42.585+57.31+42.54+59.157C42.493+61.074+40.898+62.608+39.01+62.551ZM40.874+59.089C40.863+58.124+40.049+57.319+39.085+57.321C38.125+57.323+37.309+58.134+37.299+59.095C37.287+60.081+38.139+60.92+39.122+60.893C40.095+60.868+40.884+60.054+40.874+59.089Z" fill-rule="evenodd" fill="#0079bb" opacity="1"/>
<path d="M38.998+81.64C37.102+81.583+35.607+80.028+35.644+78.149C35.681+76.274+37.274+74.718+39.114+74.758C41.036+74.8+42.585+76.389+42.535+78.268C42.482+80.198+40.911+81.697+38.998+81.64ZM40.879+78.231C40.892+77.272+40.092+76.446+39.125+76.422C38.148+76.398+37.29+77.245+37.299+78.224C37.308+79.185+38.125+79.997+39.086+80C40.048+80.002+40.865+79.196+40.879+78.231Z" fill-rule="evenodd" fill="#0079bb" opacity="1"/>
</g>
</g>
</svg>
