<?xml version="1.0" encoding="UTF-8" standalone="no"?> <!-- Created with Vectornator for iOS (http://vectornator.io/) --><!DOCTYPE svg PUBLIC "-//W3C//DTD SVG 1.1//EN" "http://www.w3.org/Graphics/SVG/1.1/DTD/svg11.dtd">
<svg style="fill-rule:evenodd;clip-rule:evenodd;stroke-linecap:round;stroke-linejoin:round;" xmlns:vectornator="http://vectornator.io" xmlns:xlink="http://www.w3.org/1999/xlink" xmlns="http://www.w3.org/2000/svg" xml:space="preserve" version="1.1" viewBox="0 0 100.002 125">
<metadata>
<vectornator:setting key="RulersVisible" value="1"/>
<vectornator:setting key="Units" value="Points"/>
<vectornator:setting key="DynamicGuides" value="1"/>
<vectornator:setting key="GuidesVisible" value="1"/>
<vectornator:setting key="CMYKEnabledKey" value="0"/>
<vectornator:setting key="SnapToGuides" value="1"/>
<vectornator:setting key="GridSpacing" value="36"/>
</metadata>
<defs/>
<g id="Untitled" vectornator:layerName="Untitled">
<g opacity="1">
<path d="M95.4083+125C65.1368+125+34.8652+125+4.59365+125C1.15965+123.905-0.00389369+121.546+1.09921e-05+118.162C0.0566262+81.0529+0.0546739+43.9433+1.09921e-05+6.83568C-0.0038935+3.45354+1.15379+1.09168+4.59365+3.97497e-06C34.8652+3.97497e-06+65.1368+3.97497e-06+95.4083+3.97497e-06C98.8424+1.09544+100.006+3.45354+100.002+6.83756C99.9454+43.9471+99.9454+81.0548+100.002+118.164C100.004+121.546+98.8423+123.905+95.4083+125ZM86.9082+112.184C86.9082+78.6328+86.9082+45.2173+86.9082+11.8074C83.1951+11.8074+79.5795+11.8074+75.8683+11.8074C75.8683+12.5252+75.8898+13.1697+75.8644+13.8123C75.7355+17.1662+73.5627+19.8325+70.1931+20.5935C69.1018+20.8396+67.9304+20.8077+66.7962+20.8095C55.2584+20.8227+43.7206+20.8283+32.1809+20.8114C27.1773+20.8039+24.1688+17.9253+24.1376+13.1847C24.1337+12.7187+24.1376+12.2527+24.1376+11.8262C20.319+11.8262+16.7073+11.8262+13.1015+11.8262C13.1015+45.33+13.1015+78.738+13.1015+112.184C37.7448+112.184+62.2845+112.184+86.9082+112.184ZM24.0829+3.14727C23.6691+3.14727+23.3391+3.14727+23.0112+3.14727C17.5156+3.14727+12.02+3.14351+6.52442+3.14727C4.04311+3.14915+3.31102+3.87067+3.31102+6.30581C3.31102+43.7761+3.31102+81.2464+3.31102+118.717C3.31102+121.139+4.05287+121.86+6.5459+121.86C35.5016+121.862+64.4574+121.862+93.4131+121.86C95.9315+121.86+96.6929+121.142+96.6929+118.762C96.6949+81.2502+96.6949+43.7404+96.6929+6.22878C96.6929+3.88383+95.9393+3.15103+93.5303+3.14915C88.0776+3.14539+82.625+3.14727+77.1704+3.14915C76.7644+3.14915+76.3583+3.18861+75.9483+3.20928C75.9483+5.03939+75.9483+6.76804+75.9483+8.59251C79.8645+8.59251+83.7027+8.59063+87.5408+8.59251C89.8249+8.59251+90.2583+9.01716+90.2603+11.2494C90.2642+45.0595+90.2681+78.8677+90.27+112.676C90.272+114.951+89.8561+115.34+87.4471+115.342C63.86+115.342+40.2729+115.342+16.6859+115.342C15.0362+115.342+13.3885+115.357+11.7408+115.321C10.3645+115.29+9.8491+114.78+9.7632+113.463C9.73782+113.057+9.75734+112.65+9.75734+112.244C9.75734+88.037+9.75734+63.8284+9.75539+39.6217C9.75539+30.0616+9.74954+20.5014+9.7593+10.9393C9.76125+9.09419+10.2747+8.60754+12.1606+8.59627C14.7824+8.58311+17.4023+8.59439+20.0223+8.59439C21.3596+8.59439+22.6968+8.59439+24.0829+8.59439C24.0829+6.74173+24.0829+5.04314+24.0829+3.14727ZM72.5709+11.8131C57.443+11.8131+42.4673+11.8131+27.2358+11.8131C27.4428+13.1077+27.4096+14.3797+27.8703+15.4545C28.6649+17.3034+30.4317+17.7262+32.3839+17.7243C44.1306+17.7074+55.8753+17.7168+67.622+17.7111C68.1686+17.7111+68.7231+17.6867+69.2619+17.6003C71.0111+17.3184+72.4109+15.8885+72.5573+14.2012C72.6256+13.4365+72.5709+12.6642+72.5709+11.8131ZM72.5534+3.2337C57.4449+3.2337+42.4653+3.2337+27.4935+3.2337C27.4935+5.05066+27.4935+6.77743+27.4935+8.50044C42.5571+8.50044+57.5347+8.50044+72.5534+8.50044C72.5534+6.71354+72.5534+5.01496+72.5534+3.2337Z" opacity="1" fill="#a50000"/>
<path d="M59.7954+75.6565C54.5556+75.6565+49.3177+75.6603+44.0798+75.649C43.5781+75.649+42.9456+75.7148+42.6117+75.4592C42.1471+75.106+41.6532+74.484+41.6473+73.9711C41.6434+73.522+42.235+72.9978+42.6801+72.6427C42.9221+72.451+43.4083+72.5149+43.7831+72.5149C54.4307+72.5092+65.0763+72.5092+75.7219+72.5149C76.1397+72.5149+76.6765+72.4566+76.9459+72.6727C77.3871+73.026+77.9103+73.5803+77.9162+74.0538C77.924+74.5254+77.4262+75.1266+76.9772+75.4442C76.6238+75.6922+76.0089+75.6434+75.5091+75.6452C70.2731+75.6603+65.0333+75.6565+59.7954+75.6565Z" fill-rule="evenodd" fill="#a50000" opacity="1"/>
<path d="M59.8696+36.6191C65.0665+36.6191+70.2634+36.6191+75.4603+36.6191C75.798+36.6191+76.1396+36.6004+76.4735+36.6417C77.3871+36.7544+77.9611+37.2392+77.9826+38.1524C78.006+39.0674+77.4379+39.5654+76.5418+39.7307C76.2548+39.7833+75.9522+39.7739+75.6574+39.7739C65.0528+39.7739+54.4482+39.7721+43.8436+39.7664C43.5488+39.7664+43.2443+39.7777+42.9592+39.7176C42.0671+39.5334+41.5282+39.028+41.5751+38.1035C41.618+37.2392+42.1705+36.7826+43.0139+36.6586C43.4278+36.5985+43.8573+36.6248+44.279+36.6248C49.4758+36.6248+54.6708+36.6248+59.8677+36.6248C59.8696+36.6229+59.8696+36.621+59.8696+36.6191Z" fill-rule="evenodd" fill="#a50000" opacity="1"/>
<path d="M59.7369+57.6729C54.456+57.6729+49.1752+57.6786+43.8944+57.6617C43.3633+57.6598+42.7074+57.6598+42.3326+57.3798C41.9402+57.0829+41.5907+56.4309+41.6415+55.9762C41.6883+55.5234+42.1764+54.9954+42.6215+54.7342C43.008+54.5069+43.6035+54.5708+44.1072+54.5689C54.5419+54.5614+64.9747+54.5633+75.4095+54.5651C75.7043+54.5651+76.003+54.5576+76.2958+54.582C77.311+54.6647+78.0138+55.1232+77.9787+56.1754C77.9455+57.2164+77.2466+57.6711+76.2119+57.6748C73.2972+57.6805+70.3844+57.6748+67.4678+57.6748C64.8908+57.6729+62.3138+57.6729+59.7369+57.6729Z" fill-rule="evenodd" fill="#a50000" opacity="1"/>
<path d="M59.7251+93.5612C54.5283+93.5612+49.3314+93.563+44.1345+93.5612C43.7128+93.5612+43.1798+93.6871+42.8929+93.4898C42.3716+93.1309+41.6766+92.5897+41.6493+92.0956C41.6219+91.5995+42.231+90.9344+42.7406+90.5962C43.1291+90.3387+43.8026+90.4458+44.3473+90.444C54.6552+90.4421+64.965+90.4458+75.2748+90.4552C75.7785+90.4552+76.4052+90.3481+76.7585+90.5886C77.272+90.9381+77.9084+91.5657+77.8928+92.058C77.8791+92.554+77.1978+93.1102+76.6824+93.4804C76.4012+93.6795+75.8624+93.5593+75.4407+93.5593C70.2029+93.563+64.963+93.5612+59.7251+93.5612Z" fill-rule="evenodd" fill="#a50000" opacity="1"/>
<path d="M28.6766+67.6164C32.3917+67.607+35.445+70.5457+35.4294+74.1195C35.4157+77.6313+32.3644+80.5625+28.7273+80.555C25.0103+80.5493+21.9413+77.59+21.9726+74.0425C22.0058+70.5044+25.0064+67.6258+28.6766+67.6164ZM28.6356+70.7562C26.7321+70.7825+25.1762+72.3026+25.1996+74.112C25.225+75.9271+26.7985+77.4115+28.7+77.4096C30.6484+77.4096+32.2551+75.835+32.1906+73.988C32.1262+72.1522+30.5605+70.728+28.6356+70.7562Z" fill-rule="evenodd" fill="#a50000" opacity="1"/>
<path d="M28.6688+44.6686C25.0064+44.648+21.9999+41.7544+21.9706+38.2219C21.9433+34.6594+25.0122+31.7132+28.7293+31.7263C32.4522+31.7413+35.5036+34.727+35.4216+38.2764C35.3396+41.8258+32.3156+44.6893+28.6688+44.6686ZM28.7078+41.5138C30.6054+41.5195+32.1887+40.0201+32.1887+38.2163C32.1887+36.3918+30.6464+34.8886+28.7508+34.8661C26.7868+34.8435+25.1723+36.3711+25.1996+38.2257C25.227+40.0295+26.8024+41.5082+28.7078+41.5138Z" fill-rule="evenodd" fill="#a50000" opacity="1"/>
<path d="M28.5438+62.5958C24.8502+62.4887+21.9023+59.5444+21.9804+56.042C22.0585+52.4457+25.2231+49.507+28.8562+49.6554C32.5733+49.8057+35.5231+52.7482+35.4353+56.2186C35.3435+59.8206+32.2297+62.7029+28.5438+62.5958ZM32.1828+56.0909C32.1614+54.2777+30.5722+52.7651+28.6903+52.7688C26.8161+52.7726+25.2231+54.2964+25.2035+56.1021C25.1801+57.9548+26.8434+59.5312+28.7625+59.4805C30.662+59.4335+32.2023+57.9041+32.1828+56.0909Z" fill-rule="evenodd" fill="#a50000" opacity="1"/>
<path d="M28.5204+98.4634C24.8189+98.3563+21.9003+95.4345+21.9726+91.9039C22.0448+88.3809+25.1547+85.4572+28.7469+85.5323C32.4991+85.6113+35.5231+88.5969+35.4255+92.1275C35.322+95.7539+32.2551+98.5705+28.5204+98.4634ZM32.1926+92.058C32.218+90.2561+30.6562+88.704+28.7683+88.659C26.861+88.6139+25.186+90.2053+25.2035+92.0448C25.2211+93.8505+26.8161+95.3763+28.6922+95.3819C30.5703+95.3856+32.1653+93.8712+32.1926+92.058Z" fill-rule="evenodd" fill="#a50000" opacity="1"/>
</g>
</g>
</svg>
