<?xml version="1.0" encoding="UTF-8" standalone="no"?> <!-- Created with Vectornator for iOS (http://vectornator.io/) --><!DOCTYPE svg PUBLIC "-//W3C//DTD SVG 1.1//EN" "http://www.w3.org/Graphics/SVG/1.1/DTD/svg11.dtd">
<svg style="fill-rule:evenodd;clip-rule:evenodd;stroke-linecap:round;stroke-linejoin:round;" xmlns:vectornator="http://vectornator.io" xmlns:xlink="http://www.w3.org/1999/xlink" xmlns="http://www.w3.org/2000/svg" xml:space="preserve" version="1.1" viewBox="0 0 333.33 416.663">
<metadata>
<vectornator:setting key="DynamicGuides" value="1"/>
<vectornator:setting key="Units" value="Points"/>
<vectornator:setting key="GuidesVisible" value="1"/>
<vectornator:setting key="RulersVisible" value="1"/>
<vectornator:setting key="SnapToGuides" value="1"/>
<vectornator:setting key="GridSpacing" value="36"/>
</metadata>
<defs/>
<g id="Untitled" vectornator:layerName="Untitled">
<path d="M245.641+237.881L245.641+338.421L188.931+338.421L188.931+272.111L144.391+272.111L144.391+338.421L87.6808+338.421L87.6808+237.881L166.661+192.281C166.661+192.281+245.641+237.881+245.641+237.881ZM10.4408+78.2512L275.381+78.2512L287.271+93.0612C283.651+94.1412+280.231+95.8312+277.221+98.1212L274.461+94.6712L249.201+126.301L265.921+126.301L265.921+137.451L10.4408+137.451L10.4408+126.301L28.2508+126.301L10.4408+104.001L10.4408+96.2812L30.2008+121.021C38.6208+110.481+47.0408+99.9312+55.4608+89.3913L10.4408+89.3913L10.4408+78.2413L10.4408+78.2512ZM322.841+122.581L322.841+199.151C322.841+210.251+317.341+217.711+309.931+221.541L306.391+245.261C305.831+248.971+303.651+251.401+300.961+252.541C302.151+254.461+304.221+255.371+306.421+255.961C335.151+263.681+323.061+306.621+294.931+299.091C283.081+295.911+275.971+283.611+279.151+271.761C280.461+266.861+287.911+268.851+286.601+273.761C284.521+281.521+289.171+289.571+296.931+291.651C315.261+296.561+323.281+268.631+304.421+263.411C296.981+261.421+293.431+256.431+292.521+252.131C290.241+250.861+288.461+248.571+287.961+245.271L284.421+221.551C277.021+217.721+271.511+210.251+271.511+199.161L271.511+122.591C271.511+88.7013+322.821+88.7013+322.821+122.591L322.841+122.581ZM314.561+197.691C313.871+189.261+307.111+181.521+297.181+181.521C288.031+181.521+280.521+188.581+279.811+197.541L279.811+123.131C280.531+132.101+288.031+139.161+297.181+139.161C307.111+139.161+313.871+131.421+314.561+122.981L314.561+197.681L314.561+197.691ZM300.871+202.661C304.131+199.421+301.891+193.721+297.181+193.721C294.291+193.721+291.951+196.061+291.951+198.951C291.951+203.641+297.611+205.891+300.861+202.661L300.871+202.661ZM304.931+206.751C311.801+199.941+307.071+187.961+297.191+187.961C291.121+187.961+286.201+192.881+286.201+198.951C286.201+208.791+298.091+213.531+304.931+206.751ZM300.871+118.011C304.131+121.251+301.891+126.951+297.181+126.951C294.291+126.951+291.951+124.611+291.951+121.721C291.951+117.031+297.611+114.781+300.861+118.001L300.871+118.011ZM304.931+113.921C311.801+120.731+307.071+132.711+297.191+132.711C291.121+132.711+286.201+127.791+286.201+121.721C286.201+111.881+298.091+107.141+304.931+113.921ZM111.151+94.6613L136.411+126.291L85.8908+126.291L111.151+94.6613ZM84.6508+121.021L59.3908+89.3913L109.911+89.3913L84.6508+121.021ZM57.4308+94.6613C49.0108+105.201+40.5908+115.751+32.1708+126.291C49.0108+126.291+65.8508+126.291+82.7008+126.291C74.2708+115.751+65.8508+105.201+57.4408+94.6613L57.4308+94.6613ZM138.371+121.021C146.791+110.481+155.211+99.9313+163.631+89.3913C146.791+89.3913+129.941+89.3913+113.111+89.3913C121.531+99.9413+129.951+110.481+138.371+121.021ZM247.251+121.021L272.511+89.3913L221.981+89.3913L247.241+121.021L247.251+121.021ZM192.811+121.021C201.231+110.481+209.651+99.9313+218.071+89.3913C201.231+89.3913+184.381+89.3913+167.551+89.3913C175.971+99.9413+184.391+110.481+192.811+121.021ZM220.031+94.6613C228.451+105.201+236.871+115.751+245.291+126.291C228.451+126.291+211.611+126.291+194.761+126.291C203.181+115.751+211.611+105.201+220.021+94.6613L220.031+94.6613ZM165.591+94.6613C174.011+105.201+182.431+115.751+190.851+126.291C174.011+126.291+157.171+126.291+140.331+126.291C148.751+115.751+157.171+105.201+165.591+94.6613ZM166.671+180.821L70.1908+236.521L70.1908+214.931L166.671+159.241L219.521+189.751L219.521+167.701L238.211+167.701L238.211+200.541L263.151+214.931L263.151+236.521C263.151+236.521+166.671+180.821+166.671+180.821Z" fill-rule="evenodd" fill="#0079bb" opacity="1"/>
</g>
</svg>
